<?xml version="1.0" encoding="UTF-8" standalone="no"?>
<svg
   xmlns:dc="http://purl.org/dc/elements/1.1/"
   xmlns:cc="http://creativecommons.org/ns#"
   xmlns:rdf="http://www.w3.org/1999/02/22-rdf-syntax-ns#"
   xmlns:svg="http://www.w3.org/2000/svg"
   xmlns="http://www.w3.org/2000/svg"
   version="1.1"
   id="Capa_1"
   x="0px"
   y="0px"
   viewBox="0 0 512 512"
   style="enable-background:new 0 0 512 512;"
   xml:space="preserve"><metadata
   id="metadata55"><rdf:RDF><cc:Work
       rdf:about=""><dc:format>image/svg+xml</dc:format><dc:type
         rdf:resource="http://purl.org/dc/dcmitype/StillImage" /><dc:title></dc:title></cc:Work></rdf:RDF></metadata><defs
   id="defs53" />
<g
   id="g6"
   style="fill:#4f94c1;fill-opacity:1">
	<g
   id="g4"
   style="fill:#4f94c1;fill-opacity:1">
		<path
   d="M256,246c-5.52,0-10,4.48-10,10s4.48,10,10,10s10-4.48,10-10C266,250.48,261.52,246,256,246z"
   id="path2"
   style="fill:#4f94c1;fill-opacity:1" />
	</g>
</g>
<g
   id="g12"
   style="fill:#4f94c1;fill-opacity:1">
	<g
   id="g10"
   style="fill:#4f94c1;fill-opacity:1">
		<path
   d="M502,246h-10.239c-1.234-27.526-7.549-54.555-18.847-80.484c-12.157-27.901-29.435-53.161-51.352-75.078    s-47.177-39.194-75.078-51.352C320.555,27.787,293.526,21.473,266,20.239V10c0-5.522-4.478-10-10-10c-5.522,0-10,4.478-10,10    v10.239c-27.526,1.234-54.555,7.549-80.484,18.847c-27.901,12.157-53.161,29.435-75.078,51.352s-39.194,47.177-51.352,75.078    C27.787,191.445,21.473,218.474,20.239,246H10c-5.522,0-10,4.478-10,10c0,5.522,4.478,10,10,10h10.239    c1.234,27.526,7.549,54.555,18.847,80.484c12.157,27.901,29.435,53.161,51.352,75.078c21.917,21.917,47.177,39.194,75.078,51.352    c25.929,11.298,52.959,17.613,80.484,18.847V502c0,5.522,4.478,10,10,10c5.522,0,10-4.478,10-10v-10.239    c27.526-1.234,54.555-7.549,80.484-18.847c27.901-12.157,53.161-29.435,75.078-51.352s39.194-47.177,51.352-75.078    c11.298-25.929,17.613-52.959,18.847-80.484H502c5.522,0,10-4.478,10-10C512,250.478,507.522,246,502,246z M436,266h35.737    C466.277,373.529,373.529,466.277,266,471.737V436c0-5.522-4.478-10-10-10c-5.522,0-10,4.478-10,10v35.737    C138.471,466.277,45.723,373.529,40.263,266H76c5.522,0,10-4.478,10-10c0-5.522-4.478-10-10-10H40.263    C45.723,138.471,138.471,45.723,246,40.263V76c0,5.522,4.478,10,10,10c5.522,0,10-4.478,10-10V40.263    C373.529,45.723,466.277,138.471,471.737,246H436c-5.522,0-10,4.478-10,10C426,261.522,430.478,266,436,266z"
   id="path8"
   style="fill:#4f94c1;fill-opacity:1" />
	</g>
</g>
<g
   id="g18"
   style="fill:#4f94c1;fill-opacity:1">
	<g
   id="g16"
   style="fill:#4f94c1;fill-opacity:1">
		<path
   d="M396,266h-50v-21.006c22.795-4.646,40-24.847,40-48.994c0-5.522-4.478-10-10-10c-5.522,0-10,4.478-10,10    c0,13.518-8.989,24.971-21.301,28.709c-4.54-19.585-20.609-34.794-40.649-38.052c1.276-3.36,1.95-6.956,1.95-10.657    c0-13.349-5.202-25.903-14.649-35.353c-0.982-0.981-2.003-1.912-3.053-2.802l14.774-14.774c3.905-3.905,3.905-10.237,0-14.143    c-3.906-3.904-10.236-3.904-14.143,0l-19.04,19.04C265.409,126.67,260.763,126,256,126c-4.765,0-9.413,0.67-13.89,1.968    l-19.039-19.039c-3.906-3.904-10.236-3.904-14.143,0c-3.905,3.905-3.905,10.237,0,14.143l14.774,14.774    c-1.051,0.891-2.072,1.822-3.054,2.804C211.202,150.097,206,162.651,206,176c0,3.752,0.698,7.342,1.962,10.655    c-20.045,3.254-36.12,18.466-40.66,38.055C154.989,220.971,146,209.518,146,196c0-5.522-4.478-10-10-10c-5.522,0-10,4.478-10,10    c0,24.146,17.205,44.348,40,48.994V266h-50c-5.522,0-10,4.478-10,10c0,5.522,4.478,10,10,10h50v21.006    c-22.795,4.646-40,24.847-40,48.994c0,5.522,4.478,10,10,10c5.522,0,10-4.478,10-10c0-13.307,8.711-24.611,20.728-28.527    C172.38,371.702,210.26,406,256,406s83.62-34.298,89.272-78.527C357.289,331.389,366,342.693,366,356c0,5.522,4.478,10,10,10    c5.522,0,10-4.478,10-10c0-24.146-17.205-44.348-40-48.994V286h50c5.522,0,10-4.478,10-10C406,270.478,401.522,266,396,266z     M234.79,154.792c2.584-2.584,5.566-4.648,8.886-6.147C247.539,146.89,251.686,146,256,146c4.314,0,8.461,0.89,12.345,2.654    c3.299,1.489,6.281,3.554,8.864,6.136C282.878,160.46,286,167.992,286,176c0,2.668-1.041,5.178-2.932,7.068    c-1.891,1.89-4.4,2.932-7.068,2.932h-40c-5.514,0-10-4.486-10-10C226,167.992,229.122,160.46,234.79,154.792z M326,316    c0,35.203-26.123,64.406-60,69.274V296c0-5.522-4.478-10-10-10c-5.522,0-10,4.478-10,10v89.274c-33.877-4.868-60-34.072-60-69.274    v-80c0-16.542,13.458-30,30-30h20h10v10c0,5.522,4.478,10,10,10c5.522,0,10-4.478,10-10v-10h10h20c16.542,0,30,13.458,30,30V316z"
   id="path14"
   style="fill:#4f94c1;fill-opacity:1" />
	</g>
</g>
<g
   id="g20"
   style="fill:#4f94c1;fill-opacity:1">
</g>
<g
   id="g22"
   style="fill:#4f94c1;fill-opacity:1">
</g>
<g
   id="g24"
   style="fill:#4f94c1;fill-opacity:1">
</g>
<g
   id="g26"
   style="fill:#4f94c1;fill-opacity:1">
</g>
<g
   id="g28"
   style="fill:#4f94c1;fill-opacity:1">
</g>
<g
   id="g30"
   style="fill:#4f94c1;fill-opacity:1">
</g>
<g
   id="g32"
   style="fill:#4f94c1;fill-opacity:1">
</g>
<g
   id="g34"
   style="fill:#4f94c1;fill-opacity:1">
</g>
<g
   id="g36"
   style="fill:#4f94c1;fill-opacity:1">
</g>
<g
   id="g38"
   style="fill:#4f94c1;fill-opacity:1">
</g>
<g
   id="g40"
   style="fill:#4f94c1;fill-opacity:1">
</g>
<g
   id="g42"
   style="fill:#4f94c1;fill-opacity:1">
</g>
<g
   id="g44"
   style="fill:#4f94c1;fill-opacity:1">
</g>
<g
   id="g46"
   style="fill:#4f94c1;fill-opacity:1">
</g>
<g
   id="g48"
   style="fill:#4f94c1;fill-opacity:1">
</g>
</svg>
