<?xml version="1.0" encoding="UTF-8" standalone="no"?>
<svg
   xmlns:dc="http://purl.org/dc/elements/1.1/"
   xmlns:cc="http://creativecommons.org/ns#"
   xmlns:rdf="http://www.w3.org/1999/02/22-rdf-syntax-ns#"
   xmlns:svg="http://www.w3.org/2000/svg"
   xmlns="http://www.w3.org/2000/svg"
   xml:space="preserve"
   style="enable-background:new 0 0 403.12 403.12;"
   viewBox="0 0 403.12 403.12"
   y="0px"
   x="0px"
   id="Capa_1"
   version="1.1"><metadata
   id="metadata73"><rdf:RDF><cc:Work
       rdf:about=""><dc:format>image/svg+xml</dc:format><dc:type
         rdf:resource="http://purl.org/dc/dcmitype/StillImage" /><dc:title></dc:title></cc:Work></rdf:RDF></metadata><defs
   id="defs71" />
<g
   style="fill:#4f94c1;fill-opacity:1"
   id="g6">
	<g
   style="fill:#4f94c1;fill-opacity:1"
   id="g4">
		<path
   style="fill:#4f94c1;fill-opacity:1"
   id="path2"
   d="m 201.56,96.751 c -4.253,0.307 -7.451,4.003 -7.145,8.255 0.276,3.826 3.319,6.869 7.145,7.145 49.374,0 89.4,40.026 89.4,89.4 -0.307,4.253 2.892,7.949 7.145,8.255 4.253,0.307 7.949,-2.892 8.255,-7.145 0.027,-0.37 0.027,-0.741 0,-1.111 0,-57.878 -46.921,-104.799 -104.8,-104.799 z" />
	</g>
</g>
<g
   style="fill:#4f94c1;fill-opacity:1"
   id="g12">
	<g
   style="fill:#4f94c1;fill-opacity:1"
   id="g10">
		<path
   style="fill:#4f94c1;fill-opacity:1"
   id="path8"
   d="m 309.56,93.551 c -28.619,-28.687 -67.478,-44.806 -108,-44.8 -4.253,-0.307 -7.949,2.892 -8.255,7.145 -0.307,4.253 2.892,7.949 7.145,8.255 0.37,0.027 0.741,0.027 1.111,0 75.91,0 137.472,61.49 137.56,137.4 -0.307,4.253 2.892,7.949 7.145,8.255 4.253,0.307 7.949,-2.892 8.255,-7.145 0.027,-0.37 0.027,-0.741 0,-1.111 C 354.489,161.005 338.31,122.142 309.56,93.551 Z" />
	</g>
</g>
<g
   style="fill:#4f94c1;fill-opacity:1"
   id="g18">
	<g
   style="fill:#4f94c1;fill-opacity:1"
   id="g16">
		<path
   style="fill:#4f94c1;fill-opacity:1"
   id="path14"
   d="M 344.08,59.031 C 265.363,-19.68 137.743,-19.676 59.031,59.04 c -78.712,78.716 -78.708,206.337 0.009,285.049 78.717,78.712 206.337,78.708 285.049,-0.009 37.799,-37.802 59.033,-89.071 59.031,-142.529 0.068,-53.47 -21.18,-104.762 -59.04,-142.52 z m -10.88,274.16 c -72.697,72.703 -190.567,72.707 -263.27,0.01 -72.703,-72.697 -72.707,-190.567 -0.01,-263.27 72.697,-72.703 190.567,-72.707 263.27,-0.01 34.912,34.91 54.527,82.258 54.53,131.63 0.069,49.387 -19.553,96.764 -54.52,131.64 z" />
	</g>
</g>
<g
   style="fill:#4f94c1;fill-opacity:1"
   id="g24">
	<g
   style="fill:#4f94c1;fill-opacity:1"
   id="g22">
		<path
   style="fill:#4f94c1;fill-opacity:1"
   id="path20"
   d="m 242.28,160.831 c -10.788,-10.818 -25.442,-16.893 -40.72,-16.88 -31.812,-0.01 -57.608,25.77 -57.619,57.581 -0.01,31.812 25.77,57.608 57.581,57.619 31.812,0.01 57.608,-25.77 57.619,-57.581 0.005,-15.279 -6.06,-29.933 -16.861,-40.739 z m -10.88,70.56 c -16.458,16.502 -43.178,16.538 -59.68,0.08 -16.502,-16.458 -16.538,-43.177 -0.08,-59.68 16.458,-16.502 43.177,-16.538 59.68,-0.08 7.929,7.907 12.39,18.642 12.4,29.84 0.028,11.19 -4.406,21.93 -12.32,29.84 z" />
	</g>
</g>
<g
   style="fill:#4f94c1;fill-opacity:1"
   id="g30">
	<g
   style="fill:#4f94c1;fill-opacity:1"
   id="g28">
		<path
   style="fill:#4f94c1;fill-opacity:1"
   id="path26"
   d="m 208.705,346.256 c -0.276,-3.826 -3.319,-6.869 -7.145,-7.145 -75.972,0 -137.56,-61.588 -137.56,-137.56 0.307,-4.253 -2.892,-7.949 -7.145,-8.255 -4.253,-0.307 -7.949,2.892 -8.255,7.145 -0.027,0.37 -0.027,0.741 0,1.111 0,84.477 68.483,152.96 152.96,152.96 4.253,-0.308 7.451,-4.004 7.145,-8.256 z" />
	</g>
</g>
<g
   style="fill:#4f94c1;fill-opacity:1"
   id="g36">
	<g
   style="fill:#4f94c1;fill-opacity:1"
   id="g34">
		<path
   style="fill:#4f94c1;fill-opacity:1"
   id="path32"
   d="m 202.671,290.951 c -0.37,-0.027 -0.741,-0.027 -1.111,0 -49.374,0 -89.4,-40.026 -89.4,-89.4 0.307,-4.253 -2.892,-7.949 -7.145,-8.255 -4.253,-0.307 -7.949,2.892 -8.255,7.145 -0.027,0.37 -0.027,0.741 0,1.111 0,57.879 46.921,104.8 104.8,104.8 4.253,0.307 7.949,-2.892 8.255,-7.145 0.307,-4.253 -2.892,-7.949 -7.144,-8.256 z" />
	</g>
</g>
<g
   style="fill:#4f94c1;fill-opacity:1"
   id="g38">
</g>
<g
   style="fill:#4f94c1;fill-opacity:1"
   id="g40">
</g>
<g
   style="fill:#4f94c1;fill-opacity:1"
   id="g42">
</g>
<g
   style="fill:#4f94c1;fill-opacity:1"
   id="g44">
</g>
<g
   style="fill:#4f94c1;fill-opacity:1"
   id="g46">
</g>
<g
   style="fill:#4f94c1;fill-opacity:1"
   id="g48">
</g>
<g
   style="fill:#4f94c1;fill-opacity:1"
   id="g50">
</g>
<g
   style="fill:#4f94c1;fill-opacity:1"
   id="g52">
</g>
<g
   style="fill:#4f94c1;fill-opacity:1"
   id="g54">
</g>
<g
   style="fill:#4f94c1;fill-opacity:1"
   id="g56">
</g>
<g
   style="fill:#4f94c1;fill-opacity:1"
   id="g58">
</g>
<g
   style="fill:#4f94c1;fill-opacity:1"
   id="g60">
</g>
<g
   style="fill:#4f94c1;fill-opacity:1"
   id="g62">
</g>
<g
   style="fill:#4f94c1;fill-opacity:1"
   id="g64">
</g>
<g
   style="fill:#4f94c1;fill-opacity:1"
   id="g66">
</g>
</svg>
