<?xml version="1.0" encoding="UTF-8" standalone="no"?>
<svg
   xmlns:dc="http://purl.org/dc/elements/1.1/"
   xmlns:cc="http://creativecommons.org/ns#"
   xmlns:rdf="http://www.w3.org/1999/02/22-rdf-syntax-ns#"
   xmlns:svg="http://www.w3.org/2000/svg"
   xmlns="http://www.w3.org/2000/svg"
   xmlns:sodipodi="http://sodipodi.sourceforge.net/DTD/sodipodi-0.dtd"
   xmlns:inkscape="http://www.inkscape.org/namespaces/inkscape"
   inkscape:version="1.0 (4035a4fb49, 2020-05-01)"
   sodipodi:docname="business.svg"
   xml:space="preserve"
   style="enable-background:new 0 0 512 512;"
   viewBox="0 0 512 512"
   y="0px"
   x="0px"
   id="Capa_1"
   version="1.1"><metadata
   id="metadata49"><rdf:RDF><cc:Work
       rdf:about=""><dc:format>image/svg+xml</dc:format><dc:type
         rdf:resource="http://purl.org/dc/dcmitype/StillImage" /></cc:Work></rdf:RDF></metadata><defs
   id="defs47" /><sodipodi:namedview
   inkscape:current-layer="Capa_1"
   inkscape:window-maximized="0"
   inkscape:window-y="20"
   inkscape:window-x="0"
   inkscape:cy="256"
   inkscape:cx="256"
   inkscape:zoom="1.8769531"
   showgrid="false"
   id="namedview45"
   inkscape:window-height="680"
   inkscape:window-width="1054"
   inkscape:pageshadow="2"
   inkscape:pageopacity="0"
   guidetolerance="10"
   gridtolerance="10"
   objecttolerance="10"
   borderopacity="1"
   bordercolor="#666666"
   pagecolor="#ffffff" />
<g
   style="fill:#4f94c1;fill-opacity:1"
   id="g6">
	<g
   style="fill:#4f94c1;fill-opacity:1"
   id="g4">
		<path
   style="fill:#4f94c1;fill-opacity:1"
   id="path2"
   d="M437.02,74.98C388.668,26.628,324.38,0,256,0S123.332,26.628,74.98,74.98C26.629,123.332,0,187.62,0,256    s26.629,132.668,74.98,181.02C123.332,485.372,187.62,512,256,512s132.668-26.628,181.02-74.98    C485.371,388.668,512,324.38,512,256S485.371,123.332,437.02,74.98z M256,482C131.383,482,30,380.617,30,256S131.383,30,256,30    s226,101.383,226,226S380.617,482,256,482z" />
	</g>
</g>
<g
   style="fill:#4f94c1;fill-opacity:1"
   id="g12">
	<g
   style="fill:#4f94c1;fill-opacity:1"
   id="g10">
		<path
   style="fill:#4f94c1;fill-opacity:1"
   id="path8"
   d="M272.067,241h-32.134c-18.307,0-33.2-14.893-33.2-33.199c0-18.307,14.894-33.2,33.2-33.2H304.2c8.284,0,15-6.716,15-15    s-6.716-15-15-15H271v-33.2c0-8.284-6.716-15-15-15s-15,6.716-15,15v33.2h-1.066c-34.849,0-63.2,28.352-63.2,63.2    c0,34.848,28.352,63.199,63.2,63.199h32.134c18.306,0,33.199,14.894,33.199,33.2c0,18.306-14.893,33.2-33.199,33.2h-64.267    c-8.284,0-15,6.716-15,15s6.716,15,15,15H241v33.201c0,8.284,6.716,15,15,15s15-6.716,15-15V367.4h1.067    c34.848,0,63.199-28.352,63.199-63.2S306.915,241,272.067,241z" />
	</g>
</g>
<g
   style="fill:#4f94c1;fill-opacity:1"
   id="g14">
</g>
<g
   style="fill:#4f94c1;fill-opacity:1"
   id="g16">
</g>
<g
   style="fill:#4f94c1;fill-opacity:1"
   id="g18">
</g>
<g
   style="fill:#4f94c1;fill-opacity:1"
   id="g20">
</g>
<g
   style="fill:#4f94c1;fill-opacity:1"
   id="g22">
</g>
<g
   style="fill:#4f94c1;fill-opacity:1"
   id="g24">
</g>
<g
   style="fill:#4f94c1;fill-opacity:1"
   id="g26">
</g>
<g
   style="fill:#4f94c1;fill-opacity:1"
   id="g28">
</g>
<g
   style="fill:#4f94c1;fill-opacity:1"
   id="g30">
</g>
<g
   style="fill:#4f94c1;fill-opacity:1"
   id="g32">
</g>
<g
   style="fill:#4f94c1;fill-opacity:1"
   id="g34">
</g>
<g
   style="fill:#4f94c1;fill-opacity:1"
   id="g36">
</g>
<g
   style="fill:#4f94c1;fill-opacity:1"
   id="g38">
</g>
<g
   style="fill:#4f94c1;fill-opacity:1"
   id="g40">
</g>
<g
   style="fill:#4f94c1;fill-opacity:1"
   id="g42">
</g>
</svg>
