<?xml version="1.0" encoding="UTF-8" standalone="no"?>
<svg
   xmlns:dc="http://purl.org/dc/elements/1.1/"
   xmlns:cc="http://creativecommons.org/ns#"
   xmlns:rdf="http://www.w3.org/1999/02/22-rdf-syntax-ns#"
   xmlns:svg="http://www.w3.org/2000/svg"
   xmlns="http://www.w3.org/2000/svg"
   version="1.1"
   id="Layer_1"
   x="0px"
   y="0px"
   viewBox="0 0 512 512"
   style="enable-background:new 0 0 512 512;"
   xml:space="preserve"><metadata
   id="metadata73"><rdf:RDF><cc:Work
       rdf:about=""><dc:format>image/svg+xml</dc:format><dc:type
         rdf:resource="http://purl.org/dc/dcmitype/StillImage" /><dc:title></dc:title></cc:Work></rdf:RDF></metadata><defs
   id="defs71" />
<g
   id="g6"
   style="fill:#4f94c1;fill-opacity:1">
	<g
   id="g4"
   style="fill:#4f94c1;fill-opacity:1">
		<path
   d="M437.019,90.897C388.668,42.545,324.38,15.917,256,15.917S123.332,42.545,74.981,90.897S0,203.536,0,271.917    c0,73.315,31.526,143.239,86.495,191.842c3.145,2.782,7.951,2.486,10.733-0.66s2.487-7.952-0.66-10.733    c-51.705-45.718-81.359-111.489-81.359-180.449c0-64.317,25.046-124.786,70.526-170.266S191.683,31.125,256,31.125    s124.786,25.046,170.266,70.526s70.526,105.948,70.526,170.266c0,68.961-29.654,134.731-81.36,180.448    c-3.147,2.782-3.442,7.587-0.66,10.733c1.503,1.7,3.597,2.567,5.7,2.567c1.79,0,3.587-0.629,5.034-1.907    C480.474,415.156,512,345.232,512,271.917C512,203.536,485.371,139.249,437.019,90.897z"
   id="path2"
   style="fill:#4f94c1;fill-opacity:1" />
	</g>
</g>
<g
   id="g12"
   style="fill:#4f94c1;fill-opacity:1">
	<g
   id="g10"
   style="fill:#4f94c1;fill-opacity:1">
		<path
   d="M357.664,426.923H187.206c-4.199,0-7.604,3.405-7.604,7.604s3.405,7.604,7.604,7.604h170.457    c5.993,0,10.869,4.876,10.869,10.869v17.009c0,5.993-4.876,10.868-10.869,10.868H154.335c-5.993,0-10.868-4.876-10.868-10.868    v-17.009c0-5.993,4.876-10.869,10.868-10.869h7.525c4.199,0,7.604-3.405,7.604-7.604s-3.405-7.604-7.604-7.604h-7.525    c-14.379,0-26.076,11.698-26.076,26.077v17.009c0,14.379,11.698,26.075,26.076,26.075h203.329    c14.379,0,26.077-11.698,26.077-26.075v-17.009C383.74,438.621,372.043,426.923,357.664,426.923z"
   id="path8"
   style="fill:#4f94c1;fill-opacity:1" />
	</g>
</g>
<g
   id="g18"
   style="fill:#4f94c1;fill-opacity:1">
	<g
   id="g16"
   style="fill:#4f94c1;fill-opacity:1">
		<path
   d="M385,99.503c-37.458-28.07-82.066-42.907-129.004-42.907c-86.616,0-164.451,51.525-198.293,131.269    c-1.533,3.612-0.066,7.798,3.387,9.662c1.145,0.618,2.384,0.913,3.607,0.913c2.467,0,4.873-1.201,6.33-3.382    c32.83-49.163,87.668-78.514,146.692-78.514c42.979,0,84.375,15.643,116.562,44.047c3.149,2.778,7.957,2.479,10.733-0.67    c2.779-3.149,2.479-7.954-0.669-10.733c-34.968-30.858-79.939-47.852-126.625-47.852c-38.538,0-75.436,11.521-106.484,32.306    c37.06-38.818,88.95-61.837,144.762-61.837c43.622,0,85.078,13.786,119.883,39.869c3.361,2.518,8.126,1.835,10.646-1.525    C389.043,106.788,388.361,102.021,385,99.503z"
   id="path14"
   style="fill:#4f94c1;fill-opacity:1" />
	</g>
</g>
<g
   id="g24"
   style="fill:#4f94c1;fill-opacity:1">
	<g
   id="g22"
   style="fill:#4f94c1;fill-opacity:1">
		<path
   d="M424.472,137.818c-2.618-3.284-7.4-3.825-10.686-1.208c-3.284,2.618-3.823,7.401-1.206,10.686    c26.896,33.748,41.817,74.063,43.392,117.017h-48.898c-3.202-21.491-9.993-42.09-20.227-61.323    c-1.972-3.707-6.575-5.115-10.285-3.141c-3.708,1.973-5.114,6.577-3.142,10.285c10.398,19.542,16.933,40.617,19.426,62.638    c0.435,3.845,3.687,6.749,7.555,6.749h63.311c4.201,0,7.605-3.405,7.605-7.604C471.318,222.643,455.118,176.272,424.472,137.818z"
   id="path20"
   style="fill:#4f94c1;fill-opacity:1" />
	</g>
</g>
<g
   id="g30"
   style="fill:#4f94c1;fill-opacity:1">
	<g
   id="g28"
   style="fill:#4f94c1;fill-opacity:1">
		<path
   d="M411.889,103.465c-3.293-2.163-7.692-1.454-10.137,1.635L269.802,271.776c-2.607,3.293-2.051,8.074,1.242,10.682    s8.075,2.05,10.682-1.242l78.719-99.435l-88.971,165.696c-0.673,1.103-1.826,2.898-2.388,3.603    c-2.782,3.496-6.759,5.698-11.199,6.202c-4.439,0.507-8.809-0.751-12.305-3.534c-3.496-2.783-5.698-6.76-6.202-11.2    c-0.504-4.439,0.751-8.809,3.548-12.321l23.782-30.041c2.606-3.293,2.05-8.076-1.243-10.683c-3.292-2.606-8.075-2.05-10.682,1.242    l-23.768,30.025c-5.314,6.673-7.709,15.016-6.748,23.492c0.962,8.476,5.167,16.07,11.841,21.382    c5.709,4.545,12.639,6.956,19.829,6.956c1.215,0,2.438-0.069,3.663-0.208c8.476-0.962,16.07-5.168,21.382-11.84    c1.4-1.759,3.242-4.775,3.598-5.362c0.067-0.112,0.133-0.225,0.194-0.34l129.637-241.433    C416.276,109.946,415.181,105.627,411.889,103.465z"
   id="path26"
   style="fill:#4f94c1;fill-opacity:1" />
	</g>
</g>
<g
   id="g36"
   style="fill:#4f94c1;fill-opacity:1">
	<g
   id="g34"
   style="fill:#4f94c1;fill-opacity:1">
		<path
   d="M263.332,334.888c-3.724-5.667-12.867-3.622-13.839,3.099c-0.462,3.196,1.192,6.474,4.106,7.905    c2.821,1.386,6.255,0.931,8.574-1.205C264.877,342.198,265.398,337.939,263.332,334.888z"
   id="path32"
   style="fill:#4f94c1;fill-opacity:1" />
	</g>
</g>
<g
   id="g38"
   style="fill:#4f94c1;fill-opacity:1">
</g>
<g
   id="g40"
   style="fill:#4f94c1;fill-opacity:1">
</g>
<g
   id="g42"
   style="fill:#4f94c1;fill-opacity:1">
</g>
<g
   id="g44"
   style="fill:#4f94c1;fill-opacity:1">
</g>
<g
   id="g46"
   style="fill:#4f94c1;fill-opacity:1">
</g>
<g
   id="g48"
   style="fill:#4f94c1;fill-opacity:1">
</g>
<g
   id="g50"
   style="fill:#4f94c1;fill-opacity:1">
</g>
<g
   id="g52"
   style="fill:#4f94c1;fill-opacity:1">
</g>
<g
   id="g54"
   style="fill:#4f94c1;fill-opacity:1">
</g>
<g
   id="g56"
   style="fill:#4f94c1;fill-opacity:1">
</g>
<g
   id="g58"
   style="fill:#4f94c1;fill-opacity:1">
</g>
<g
   id="g60"
   style="fill:#4f94c1;fill-opacity:1">
</g>
<g
   id="g62"
   style="fill:#4f94c1;fill-opacity:1">
</g>
<g
   id="g64"
   style="fill:#4f94c1;fill-opacity:1">
</g>
<g
   id="g66"
   style="fill:#4f94c1;fill-opacity:1">
</g>
</svg>
