<?xml version="1.0" encoding="UTF-8" standalone="no"?>
<!-- Generator: Adobe Illustrator 17.0.0, SVG Export Plug-In . SVG Version: 6.00 Build 0)  -->

<svg
   xmlns:dc="http://purl.org/dc/elements/1.1/"
   xmlns:cc="http://creativecommons.org/ns#"
   xmlns:rdf="http://www.w3.org/1999/02/22-rdf-syntax-ns#"
   xmlns:svg="http://www.w3.org/2000/svg"
   xmlns="http://www.w3.org/2000/svg"
   xmlns:sodipodi="http://sodipodi.sourceforge.net/DTD/sodipodi-0.dtd"
   xmlns:inkscape="http://www.inkscape.org/namespaces/inkscape"
   version="1.1"
   x="0px"
   y="0px"
   width="1217.493"
   height="240.73801"
   viewBox="0 0 1217.4931 240.738"
   enable-background="new 0 0 918.35 240.738"
   xml:space="preserve"
   id="svg2"
   inkscape:version="0.91 r13725"
   sodipodi:docname="gallium-logo.svg"><metadata
     id="metadata56"><rdf:RDF><cc:Work
         rdf:about=""><dc:format>image/svg+xml</dc:format><dc:type
           rdf:resource="http://purl.org/dc/dcmitype/StillImage" /><dc:title /></cc:Work></rdf:RDF></metadata><defs
     id="defs54" /><sodipodi:namedview
     pagecolor="#ffffff"
     bordercolor="#666666"
     borderopacity="1"
     objecttolerance="10"
     gridtolerance="10"
     guidetolerance="10"
     inkscape:pageopacity="0"
     inkscape:pageshadow="2"
     inkscape:window-width="1920"
     inkscape:window-height="1017"
     id="namedview52"
     showgrid="false"
     fit-margin-top="0"
     fit-margin-left="0"
     fit-margin-right="0"
     fit-margin-bottom="0"
     inkscape:zoom="0.46198516"
     inkscape:cx="509.99463"
     inkscape:cy="347.92456"
     inkscape:window-x="1272"
     inkscape:window-y="-8"
     inkscape:window-maximized="1"
     inkscape:current-layer="g3" /><g
     id="Layer_1"
     display="none"
     style="display:none"><rect
       x="78.831001"
       y="54.609001"
       display="inline"
       width="362.37799"
       height="362.37799"
       id="rect5"
       style="display:inline;fill:#00a651" /><circle
       display="inline"
       cx="260.01999"
       cy="235.798"
       r="60.811001"
       id="circle7"
       style="display:inline;fill:#ffffff" /><circle
       display="inline"
       cx="260.01999"
       cy="235.798"
       r="60.811001"
       id="circle9"
       style="display:inline;fill:#ffffff" /><circle
       display="inline"
       cx="260.01999"
       cy="235.798"
       r="60.811001"
       id="circle11"
       style="display:inline;fill:#ffffff" /></g><path
     style="fill:#6cb5dd"
     inkscape:connector-curvature="0"
     id="path18"
     d="m 122.403,81.369 c 9.495,0.488 18.09,4.366 24.605,10.448 0.559,0.521 1.097,1.064 1.624,1.617 1.714,1.653 3.249,3.489 4.564,5.486 l 0.004,-0.003 0.103,0.169 c 0.354,0.545 0.692,1.101 1.013,1.668 l 86.422,126.701 0,-227.455 0,0 -118.335,81.369 z" /><path
     style="fill:#65a6ca"
     inkscape:connector-curvature="0"
     id="path20"
     d="M 240.738,227.454 154.316,100.753 c -0.321,-0.567 -0.659,-1.123 -1.013,-1.668 l -0.103,-0.169 -0.004,0.003 c -1.315,-1.997 -2.85,-3.833 -4.564,-5.486 6.682,7.008 10.795,16.488 10.795,26.935 0,0.628 -0.018,1.251 -0.047,1.872 -0.003,0.054 -0.009,0.108 -0.011,0.163 l 81.369,118.334 0,0 0,0 0,-13.283 0,0 z" /><path
     style="fill:#2f7aa2"
     inkscape:connector-curvature="0"
     id="path22"
     d="m 118.334,159.369 c -9.495,-0.488 -18.089,-4.366 -24.605,-10.448 -0.559,-0.521 -1.097,-1.064 -1.624,-1.617 -1.714,-1.653 -3.249,-3.49 -4.564,-5.486 l -0.004,0.003 -0.103,-0.169 c -0.354,-0.545 -0.692,-1.101 -1.013,-1.668 L 0,13.284 l 0,227.454 0,0 118.334,-81.369 z" /><path
     style="fill:#2e7195"
     inkscape:connector-curvature="0"
     id="path24"
     d="m 87.435,141.653 0.103,0.169 0.004,-0.003 c 1.315,1.997 2.85,3.833 4.564,5.486 -6.683,-7.008 -10.795,-16.488 -10.795,-26.936 0,-0.628 0.018,-1.251 0.047,-1.872 l 0,0 c 0.003,-0.054 0.009,-0.108 0.011,-0.162 L 0,0 l 0,0 0,0 0,13.284 0,0 86.422,126.701 c 0.322,0.567 0.659,1.123 1.013,1.668 z" /><path
     style="fill:#4f94c1"
     inkscape:connector-curvature="0"
     id="path26"
     d="m 81.369,118.334 c 0.488,-9.495 4.366,-18.089 10.447,-24.605 0.521,-0.559 1.064,-1.097 1.616,-1.624 1.653,-1.714 3.49,-3.249 5.487,-4.564 l -0.003,-0.004 0.169,-0.103 c 0.545,-0.354 1.101,-0.692 1.668,-1.013 L 227.454,0 0,0 0,0 81.369,118.334 Z" /><path
     style="fill:#4b88b1"
     inkscape:connector-curvature="0"
     id="path28"
     d="m 99.085,87.435 -0.169,0.103 0.003,0.004 c -1.997,1.315 -3.834,2.85 -5.487,4.564 7.008,-6.683 16.488,-10.796 26.936,-10.796 0.628,0 1.251,0.018 1.872,0.047 0.054,0.003 0.108,0.009 0.162,0.011 L 240.737,0 l 0,0 -13.284,0 -126.7,86.422 c -0.567,0.322 -1.123,0.659 -1.668,1.013 z" /><path
     style="fill:#a3c8e9"
     inkscape:connector-curvature="0"
     id="path30"
     d="m 159.369,122.403 c -0.488,9.495 -4.366,18.089 -10.448,24.605 -0.521,0.558 -1.063,1.097 -1.616,1.624 -1.653,1.714 -3.49,3.249 -5.487,4.564 l 0.003,0.004 -0.169,0.103 c -0.545,0.354 -1.101,0.692 -1.668,1.013 l -126.7,86.422 227.454,0 0,0 -81.369,-118.335 z" /><path
     style="fill:#96b7d5"
     inkscape:connector-curvature="0"
     id="path32"
     d="m 141.653,153.302 0.169,-0.103 -0.003,-0.004 c 1.997,-1.315 3.834,-2.85 5.487,-4.564 -7.008,6.683 -16.488,10.796 -26.936,10.796 -0.628,0 -1.251,-0.018 -1.872,-0.047 l 0,0 c -0.054,-0.003 -0.108,-0.009 -0.162,-0.011 L 0,240.738 l 0,0 13.284,0 126.701,-86.422 c 0.567,-0.322 1.123,-0.66 1.668,-1.014 z" /><path
     style="fill:#efefef;fill-opacity:1"
     inkscape:connector-curvature="0"
     id="path34"
     d="m 147.008,91.817 c -6.516,-6.082 -15.11,-9.96 -24.605,-10.448 -0.054,-0.003 -0.108,-0.009 -0.162,-0.011 -0.621,-0.029 -1.244,-0.047 -1.872,-0.047 -10.448,0 -19.928,4.113 -26.936,10.796 -0.553,0.527 -1.095,1.065 -1.616,1.624 -6.082,6.516 -9.96,15.11 -10.447,24.605 0,0 0,0 0,0 -0.003,0.054 -0.009,0.108 -0.011,0.162 l 0,0 c -0.029,0.621 -0.047,1.244 -0.047,1.872 0,10.448 4.113,19.928 10.795,26.936 0.527,0.553 1.066,1.095 1.624,1.617 6.516,6.082 15.11,9.96 24.605,10.448 0,0 0,0 0,0 0.054,0.003 0.108,0.009 0.162,0.011 l 0,0 c 0.621,0.029 1.244,0.047 1.872,0.047 10.448,0 19.928,-4.113 26.936,-10.796 0.553,-0.527 1.095,-1.065 1.616,-1.624 6.082,-6.516 9.96,-15.11 10.448,-24.605 0.003,-0.054 0.009,-0.108 0.011,-0.163 0.029,-0.621 0.047,-1.244 0.047,-1.872 0,-10.448 -4.113,-19.927 -10.795,-26.935 -0.528,-0.554 -1.066,-1.096 -1.625,-1.617 z" /><g
     style="font-style:normal;font-weight:normal;font-size:40px;line-height:125%;font-family:sans-serif;letter-spacing:0px;word-spacing:0px;fill:#6d6e71;fill-opacity:1;stroke:none;stroke-width:1px;stroke-linecap:butt;stroke-linejoin:miter;stroke-opacity:1"
     id="text4203" /><g
     id="g3"
     transform="matrix(2.434863,0,0,2.4088975,-1.5373588,-0.23158516)"><g
       id="Layer_2_1_"><g
         id="g6"><g
           id="g8"><g
             id="g10"><path
               d="m 50.818,33.781 c 3.942,0.203 7.51,1.813 10.215,4.338 0.232,0.216 0.455,0.442 0.674,0.671 0.712,0.686 1.349,1.449 1.895,2.278 l 0.002,-10e-4 0.043,0.07 c 0.147,0.226 0.287,0.457 0.421,0.692 l 35.879,52.602 0,-94.431 0,0 -49.129,33.781 z"
               id="path12"
               inkscape:connector-curvature="0"
               style="fill:#6cb5dd" /></g><g
             id="g14"><path
               d="M 99.946,94.431 64.067,41.829 c -0.133,-0.235 -0.274,-0.466 -0.421,-0.692 l -0.043,-0.07 -0.002,10e-4 c -0.546,-0.829 -1.183,-1.591 -1.895,-2.278 2.774,2.909 4.482,6.845 4.482,11.182 0,0.261 -0.007,0.519 -0.02,0.777 -0.001,0.022 -0.004,0.045 -0.005,0.068 l 33.782,49.128 0,0 0,0 0,-5.514 0.001,0 z"
               id="path16"
               inkscape:connector-curvature="0"
               style="fill:#65a6ca" /></g><g
             id="g18"><path
               d="M 49.128,66.164 C 45.186,65.961 41.618,64.351 38.913,61.826 38.681,61.61 38.458,61.384 38.239,61.155 37.527,60.469 36.89,59.706 36.344,58.877 l -0.002,10e-4 -0.043,-0.07 C 36.152,58.582 36.012,58.351 35.878,58.116 L 0,5.515 l 0,94.431 0,0 49.128,-33.782 z"
               id="path20-1"
               inkscape:connector-curvature="0"
               style="fill:#2f7aa2" /></g><g
             id="g22"><path
               d="m 36.3,58.809 0.043,0.07 0.002,-10e-4 c 0.546,0.829 1.183,1.591 1.895,2.278 -2.775,-2.909 -4.482,-6.845 -4.482,-11.183 0,-0.261 0.007,-0.519 0.02,-0.777 l 0,0 c 0.001,-0.022 0.004,-0.045 0.005,-0.067 L 0,0 l 0,0 0,0 0,5.515 0,0 35.879,52.602 c 0.134,0.235 0.274,0.466 0.421,0.692 z"
               id="path24-0"
               inkscape:connector-curvature="0"
               style="fill:#2e7195" /></g><g
             id="g26"><path
               d="m 33.782,49.128 c 0.203,-3.942 1.813,-7.51 4.337,-10.215 0.216,-0.232 0.442,-0.455 0.671,-0.674 0.686,-0.712 1.449,-1.349 2.278,-1.895 l -10e-4,-0.002 0.07,-0.043 c 0.226,-0.147 0.457,-0.287 0.692,-0.421 L 94.431,0 0,0 0,0 33.782,49.128 Z"
               id="path28-1"
               inkscape:connector-curvature="0"
               style="fill:#4f94c1" /></g><g
             id="g30"><path
               d="m 41.137,36.3 -0.07,0.043 10e-4,0.002 c -0.829,0.546 -1.592,1.183 -2.278,1.895 2.909,-2.775 6.845,-4.482 11.183,-4.482 0.261,0 0.519,0.007 0.777,0.02 0.022,0.001 0.045,0.004 0.067,0.005 L 99.946,0 l 0,0 -5.515,0 -52.602,35.879 c -0.235,0.134 -0.466,0.274 -0.692,0.421 z"
               id="path32-0"
               inkscape:connector-curvature="0"
               style="fill:#4b88b1" /></g><g
             id="g34"><path
               d="m 66.165,50.817 c -0.203,3.942 -1.813,7.51 -4.338,10.215 -0.216,0.232 -0.441,0.455 -0.671,0.674 -0.686,0.712 -1.449,1.349 -2.278,1.895 l 10e-4,0.002 -0.07,0.043 c -0.226,0.147 -0.457,0.287 -0.692,0.421 l -52.602,35.879 94.431,0 0,0 -33.781,-49.129 z"
               id="path36"
               inkscape:connector-curvature="0"
               style="fill:#a3c8e9" /></g><g
             id="g38"><path
               d="m 58.809,63.645 0.07,-0.043 -10e-4,-0.002 c 0.829,-0.546 1.592,-1.183 2.278,-1.895 -2.909,2.775 -6.845,4.482 -11.183,4.482 -0.261,0 -0.519,-0.007 -0.777,-0.02 l 0,0 C 49.174,66.166 49.151,66.163 49.129,66.162 L 0,99.946 l 0,0 5.515,0 52.602,-35.879 c 0.235,-0.134 0.466,-0.275 0.692,-0.422 z"
               id="path40"
               inkscape:connector-curvature="0"
               style="fill:#96b7d5" /></g></g></g></g><g
       id="g42"
       style="fill:#808080"><path
         d="m 156.054,29.995 c -5.539,0 -9.77,1.722 -12.693,5.163 -2.925,3.443 -4.387,8.218 -4.387,14.324 0,2.9 0.35,5.551 1.048,7.958 0.699,2.407 1.734,4.465 3.106,6.172 1.37,1.708 3.079,3.041 5.124,3.999 2.044,0.958 4.437,1.436 7.182,1.436 1.708,0 3.183,-0.065 4.425,-0.194 1.242,-0.129 2.225,-0.297 2.95,-0.505 l 0,-19.332 9.783,0 0,25.852 c -1.347,0.519 -3.624,1.087 -6.833,1.708 -3.209,0.621 -6.91,0.931 -11.102,0.931 -3.881,0 -7.427,-0.621 -10.635,-1.863 -3.21,-1.243 -5.939,-3.054 -8.19,-5.435 -2.251,-2.38 -3.999,-5.305 -5.241,-8.773 -1.243,-3.467 -1.863,-7.453 -1.863,-11.956 0,-4.503 0.686,-8.488 2.057,-11.956 1.371,-3.468 3.248,-6.406 5.629,-8.812 2.38,-2.407 5.175,-4.231 8.385,-5.473 3.208,-1.242 6.625,-1.863 10.248,-1.863 2.484,0 4.696,0.169 6.637,0.505 1.941,0.338 3.61,0.712 5.008,1.126 1.397,0.415 2.548,0.855 3.455,1.32 0.905,0.466 1.539,0.803 1.902,1.009 l -2.95,7.997 c -1.553,-0.932 -3.481,-1.72 -5.784,-2.368 -2.305,-0.646 -4.725,-0.97 -7.261,-0.97 z"
         id="path44"
         inkscape:connector-curvature="0"
         style="fill:#808080" /><path
         d="m 193.864,34.808 c 3.105,0 5.718,0.389 7.841,1.165 2.122,0.776 3.816,1.863 5.085,3.26 1.267,1.398 2.174,3.094 2.717,5.085 0.543,1.993 0.815,4.181 0.815,6.561 l 0,24.611 c -1.45,0.31 -3.636,0.687 -6.56,1.126 -2.925,0.439 -6.225,0.659 -9.899,0.659 -2.434,0 -4.658,-0.233 -6.677,-0.698 -2.019,-0.466 -3.74,-1.215 -5.163,-2.251 -1.424,-1.034 -2.536,-2.38 -3.339,-4.037 -0.803,-1.655 -1.203,-3.7 -1.203,-6.133 0,-2.33 0.453,-4.296 1.359,-5.901 0.906,-1.604 2.135,-2.912 3.688,-3.92 1.552,-1.01 3.35,-1.734 5.396,-2.174 2.043,-0.439 4.179,-0.66 6.405,-0.66 1.034,0 2.122,0.066 3.26,0.194 1.139,0.13 2.355,0.35 3.649,0.66 l 0,-1.552 c 0,-1.087 -0.13,-2.122 -0.388,-3.106 -0.26,-0.982 -0.712,-1.85 -1.359,-2.6 -0.648,-0.75 -1.502,-1.332 -2.562,-1.747 -1.062,-0.414 -2.395,-0.621 -3.999,-0.621 -2.174,0 -4.167,0.155 -5.977,0.466 -1.812,0.31 -3.288,0.674 -4.425,1.087 l -1.165,-7.609 c 1.191,-0.414 2.923,-0.827 5.201,-1.242 2.278,-0.415 4.711,-0.623 7.3,-0.623 z m 0.776,35.014 c 2.898,0 5.097,-0.155 6.599,-0.466 l 0,-10.403 c -0.518,-0.155 -1.269,-0.31 -2.251,-0.466 -0.984,-0.155 -2.071,-0.233 -3.26,-0.233 -1.036,0 -2.084,0.078 -3.144,0.233 -1.062,0.155 -2.019,0.44 -2.873,0.854 -0.854,0.415 -1.54,0.998 -2.057,1.747 -0.518,0.75 -0.776,1.695 -0.776,2.833 0,2.227 0.698,3.766 2.096,4.62 1.396,0.854 3.285,1.281 5.666,1.281 z"
         id="path46"
         inkscape:connector-curvature="0"
         style="fill:#808080" /><path
         d="m 232.836,77.198 c -2.795,-0.052 -5.112,-0.362 -6.949,-0.931 -1.838,-0.569 -3.3,-1.384 -4.386,-2.446 -1.087,-1.06 -1.851,-2.379 -2.291,-3.959 -0.44,-1.579 -0.659,-3.377 -0.659,-5.396 l 0,-46.737 9.394,-1.553 0,46.504 c 0,1.139 0.09,2.096 0.271,2.872 0.181,0.776 0.505,1.436 0.971,1.98 0.466,0.543 1.099,0.958 1.903,1.242 0.802,0.285 1.824,0.505 3.067,0.66 l -1.321,7.764 z"
         id="path48"
         inkscape:connector-curvature="0"
         style="fill:#808080" /><path
         d="m 252.788,77.198 c -2.795,-0.052 -5.112,-0.362 -6.949,-0.931 -1.838,-0.569 -3.3,-1.384 -4.386,-2.446 -1.087,-1.06 -1.851,-2.379 -2.291,-3.959 -0.44,-1.579 -0.659,-3.377 -0.659,-5.396 l 0,-46.737 9.394,-1.553 0,46.504 c 0,1.139 0.09,2.096 0.271,2.872 0.181,0.776 0.505,1.436 0.971,1.98 0.466,0.543 1.099,0.958 1.903,1.242 0.802,0.285 1.824,0.505 3.067,0.66 l -1.321,7.764 z"
         id="path50"
         inkscape:connector-curvature="0"
         style="fill:#808080" /><path
         d="m 269.091,23.94 c 0,1.759 -0.57,3.157 -1.707,4.192 -1.139,1.036 -2.485,1.553 -4.037,1.553 -1.605,0 -2.977,-0.517 -4.115,-1.553 -1.139,-1.034 -1.708,-2.432 -1.708,-4.192 0,-1.811 0.569,-3.235 1.708,-4.27 1.138,-1.035 2.51,-1.553 4.115,-1.553 1.552,0 2.898,0.518 4.037,1.553 1.137,1.035 1.707,2.459 1.707,4.27 z m -1.009,52.481 -9.394,0 0,-40.603 9.394,0 0,40.603 z"
         id="path52"
         inkscape:connector-curvature="0"
         style="fill:#808080" /><path
         d="m 310.237,75.179 c -1.813,0.466 -4.167,0.946 -7.066,1.437 -2.899,0.491 -6.082,0.737 -9.549,0.737 -3.26,0 -5.991,-0.466 -8.19,-1.397 -2.2,-0.932 -3.96,-2.225 -5.279,-3.882 -1.32,-1.656 -2.265,-3.636 -2.834,-5.939 -0.571,-2.303 -0.855,-4.825 -0.855,-7.57 l 0,-22.747 9.395,0 0,21.272 c 0,4.348 0.633,7.454 1.902,9.317 1.267,1.863 3.48,2.795 6.637,2.795 1.138,0 2.342,-0.051 3.611,-0.155 1.267,-0.103 2.212,-0.233 2.833,-0.388 l 0,-32.84 9.395,0 0,39.36 z"
         id="path54"
         inkscape:connector-curvature="0"
         style="fill:#808080" /><path
         d="m 342.223,55.071 c 0,-4.243 -0.531,-7.309 -1.591,-9.199 -1.062,-1.889 -3.041,-2.834 -5.939,-2.834 -1.036,0 -2.174,0.078 -3.416,0.233 -1.242,0.155 -2.174,0.285 -2.795,0.388 l 0,32.763 -9.394,0 0,-39.285 c 1.811,-0.516 4.179,-1.009 7.103,-1.475 2.923,-0.466 6.017,-0.699 9.278,-0.699 2.795,0 5.085,0.363 6.871,1.087 1.785,0.726 3.272,1.683 4.464,2.872 0.569,-0.414 1.293,-0.854 2.174,-1.319 0.879,-0.466 1.863,-0.893 2.95,-1.281 1.087,-0.389 2.239,-0.711 3.455,-0.971 1.216,-0.258 2.446,-0.389 3.688,-0.389 3.156,0 5.757,0.454 7.802,1.359 2.043,0.906 3.648,2.174 4.813,3.804 1.164,1.631 1.966,3.598 2.407,5.901 0.439,2.303 0.66,4.827 0.66,7.57 l 0,22.825 -9.395,0 0,-21.35 c 0,-4.243 -0.518,-7.309 -1.552,-9.199 -1.036,-1.889 -3.028,-2.834 -5.978,-2.834 -1.502,0 -2.924,0.246 -4.27,0.738 -1.347,0.492 -2.355,0.971 -3.027,1.436 0.414,1.295 0.698,2.667 0.854,4.115 0.155,1.45 0.233,3.002 0.233,4.658 l 0,22.437 -9.394,0 0,-21.351 z"
         id="path56"
         inkscape:connector-curvature="0"
         style="fill:#808080" /><path
         d="m 432.435,49.482 c 0,4.607 -0.674,8.67 -2.019,12.188 -1.347,3.52 -3.171,6.458 -5.473,8.812 -2.303,2.355 -4.982,4.128 -8.035,5.318 -3.055,1.19 -6.289,1.786 -9.705,1.786 -3.416,0 -6.651,-0.596 -9.704,-1.786 -3.055,-1.191 -5.733,-2.963 -8.035,-5.318 -2.303,-2.355 -4.128,-5.292 -5.473,-8.812 -1.347,-3.519 -2.019,-7.582 -2.019,-12.188 0,-4.606 0.672,-8.656 2.019,-12.15 1.346,-3.494 3.17,-6.417 5.473,-8.773 2.303,-2.355 4.98,-4.127 8.035,-5.318 3.053,-1.19 6.289,-1.786 9.704,-1.786 3.416,0 6.65,0.596 9.705,1.786 3.053,1.191 5.732,2.964 8.035,5.318 2.303,2.355 4.127,5.279 5.473,8.773 1.345,3.494 2.019,7.544 2.019,12.15 z m -5.59,0 c 0,-3.622 -0.466,-6.871 -1.397,-9.743 -0.932,-2.872 -2.251,-5.318 -3.96,-7.337 -1.708,-2.019 -3.765,-3.558 -6.172,-4.619 -2.408,-1.06 -5.113,-1.591 -8.114,-1.591 -3.002,0 -5.706,0.531 -8.113,1.591 -2.407,1.061 -4.464,2.6 -6.172,4.619 -1.708,2.019 -3.027,4.465 -3.96,7.337 -0.931,2.872 -1.397,6.122 -1.397,9.743 0,3.624 0.466,6.871 1.397,9.743 0.932,2.872 2.251,5.318 3.96,7.337 1.708,2.018 3.765,3.571 6.172,4.658 2.407,1.086 5.111,1.63 8.113,1.63 3.001,0 5.706,-0.543 8.114,-1.63 2.407,-1.087 4.464,-2.64 6.172,-4.658 1.708,-2.019 3.028,-4.464 3.96,-7.337 0.931,-2.872 1.397,-6.12 1.397,-9.743 z"
         id="path58"
         inkscape:connector-curvature="0"
         style="fill:#808080" /><path
         d="m 452.697,73.005 c 4.192,0 7.454,-0.764 9.783,-2.295 2.329,-1.531 3.493,-4.007 3.493,-7.431 0,-1.972 -0.376,-3.619 -1.126,-4.941 -0.75,-1.322 -1.747,-2.438 -2.989,-3.346 -1.242,-0.907 -2.666,-1.683 -4.27,-2.326 -1.604,-0.643 -3.287,-1.324 -5.046,-2.045 -2.226,-0.874 -4.219,-1.774 -5.977,-2.701 -1.76,-0.925 -3.261,-1.971 -4.503,-3.136 -1.243,-1.164 -2.188,-2.496 -2.834,-3.998 -0.648,-1.5 -0.971,-3.26 -0.971,-5.279 0,-4.606 1.526,-8.1 4.581,-10.481 3.053,-2.38 7.298,-3.572 12.733,-3.572 1.448,0 2.872,0.105 4.269,0.311 1.398,0.207 2.704,0.478 3.921,0.814 1.215,0.338 2.329,0.712 3.338,1.126 1.01,0.415 1.85,0.855 2.523,1.32 l -1.863,4.425 c -1.502,-1.034 -3.326,-1.863 -5.473,-2.484 -2.148,-0.621 -4.464,-0.932 -6.949,-0.932 -1.707,0 -3.274,0.169 -4.696,0.505 -1.424,0.338 -2.653,0.881 -3.688,1.631 -1.036,0.75 -1.851,1.695 -2.446,2.834 -0.595,1.139 -0.893,2.511 -0.893,4.115 0,1.657 0.31,3.054 0.932,4.192 0.621,1.139 1.487,2.124 2.6,2.951 1.113,0.828 2.419,1.579 3.921,2.251 1.5,0.673 3.131,1.372 4.891,2.096 2.122,0.88 4.127,1.76 6.017,2.639 1.889,0.881 3.532,1.915 4.93,3.105 1.397,1.191 2.51,2.639 3.338,4.348 0.827,1.708 1.243,3.804 1.243,6.289 0,4.865 -1.696,8.515 -5.085,10.947 -3.391,2.433 -7.984,3.649 -13.781,3.649 -2.071,0 -3.96,-0.13 -5.667,-0.389 -1.708,-0.259 -3.236,-0.582 -4.58,-0.971 -1.347,-0.388 -2.484,-0.788 -3.416,-1.203 -0.931,-0.414 -1.657,-0.776 -2.174,-1.086 l 1.708,-4.58 c 0.517,0.31 1.215,0.673 2.096,1.086 0.879,0.415 1.914,0.815 3.105,1.203 1.191,0.389 2.535,0.712 4.037,0.971 1.501,0.26 3.156,0.388 4.968,0.388 z"
         id="path60"
         inkscape:connector-curvature="0"
         style="fill:#808080" /></g></g></svg>