<?xml version="1.0" encoding="UTF-8" standalone="no"?>
<!-- Generator: Adobe Illustrator 17.0.0, SVG Export Plug-In . SVG Version: 6.00 Build 0)  -->

<svg
   xmlns:dc="http://purl.org/dc/elements/1.1/"
   xmlns:cc="http://creativecommons.org/ns#"
   xmlns:rdf="http://www.w3.org/1999/02/22-rdf-syntax-ns#"
   xmlns:svg="http://www.w3.org/2000/svg"
   xmlns="http://www.w3.org/2000/svg"
   xmlns:sodipodi="http://sodipodi.sourceforge.net/DTD/sodipodi-0.dtd"
   xmlns:inkscape="http://www.inkscape.org/namespaces/inkscape"
   version="1.1"
   x="0px"
   y="0px"
   width="1217.493"
   height="240.73801"
   viewBox="0 0 1217.4931 240.738"
   enable-background="new 0 0 918.35 240.738"
   xml:space="preserve"
   id="svg2"
   inkscape:version="0.91 r13725"
   sodipodi:docname="gallium-logo.svg"><metadata
     id="metadata56"><rdf:RDF><cc:Work
         rdf:about=""><dc:format>image/svg+xml</dc:format><dc:type
           rdf:resource="http://purl.org/dc/dcmitype/StillImage" /><dc:title></dc:title></cc:Work></rdf:RDF></metadata><defs
     id="defs54" /><sodipodi:namedview
     pagecolor="#ffffff"
     bordercolor="#666666"
     borderopacity="1"
     objecttolerance="10"
     gridtolerance="10"
     guidetolerance="10"
     inkscape:pageopacity="0"
     inkscape:pageshadow="2"
     inkscape:window-width="1366"
     inkscape:window-height="709"
     id="namedview52"
     showgrid="false"
     fit-margin-top="0"
     fit-margin-left="0"
     fit-margin-right="0"
     fit-margin-bottom="0"
     inkscape:zoom="0.46198516"
     inkscape:cx="-104.23858"
     inkscape:cy="87.082349"
     inkscape:window-x="0"
     inkscape:window-y="0"
     inkscape:window-maximized="1"
     inkscape:current-layer="svg2" /><g
     id="Layer_1"
     display="none"
     style="display:none"><rect
       x="78.831001"
       y="54.609001"
       display="inline"
       width="362.37799"
       height="362.37799"
       id="rect5"
       style="display:inline;fill:#00a651" /><circle
       display="inline"
       cx="260.01999"
       cy="235.798"
       r="60.811001"
       id="circle7"
       style="display:inline;fill:#ffffff" /><circle
       display="inline"
       cx="260.01999"
       cy="235.798"
       r="60.811001"
       id="circle9"
       style="display:inline;fill:#ffffff" /><circle
       display="inline"
       cx="260.01999"
       cy="235.798"
       r="60.811001"
       id="circle11"
       style="display:inline;fill:#ffffff" /></g><path
     style="fill:#6cb5dd"
     inkscape:connector-curvature="0"
     id="path18"
     d="m 122.403,81.369 c 9.495,0.488 18.09,4.366 24.605,10.448 0.559,0.521 1.097,1.064 1.624,1.617 1.714,1.653 3.249,3.489 4.564,5.486 l 0.004,-0.003 0.103,0.169 c 0.354,0.545 0.692,1.101 1.013,1.668 l 86.422,126.701 0,-227.455 0,0 -118.335,81.369 z" /><path
     style="fill:#65a6ca"
     inkscape:connector-curvature="0"
     id="path20"
     d="M 240.738,227.454 154.316,100.753 c -0.321,-0.567 -0.659,-1.123 -1.013,-1.668 l -0.103,-0.169 -0.004,0.003 c -1.315,-1.997 -2.85,-3.833 -4.564,-5.486 6.682,7.008 10.795,16.488 10.795,26.935 0,0.628 -0.018,1.251 -0.047,1.872 -0.003,0.054 -0.009,0.108 -0.011,0.163 l 81.369,118.334 0,0 0,0 0,-13.283 0,0 z" /><path
     style="fill:#2f7aa2"
     inkscape:connector-curvature="0"
     id="path22"
     d="m 118.334,159.369 c -9.495,-0.488 -18.089,-4.366 -24.605,-10.448 -0.559,-0.521 -1.097,-1.064 -1.624,-1.617 -1.714,-1.653 -3.249,-3.49 -4.564,-5.486 l -0.004,0.003 -0.103,-0.169 c -0.354,-0.545 -0.692,-1.101 -1.013,-1.668 L 0,13.284 l 0,227.454 0,0 118.334,-81.369 z" /><path
     style="fill:#2e7195"
     inkscape:connector-curvature="0"
     id="path24"
     d="m 87.435,141.653 0.103,0.169 0.004,-0.003 c 1.315,1.997 2.85,3.833 4.564,5.486 -6.683,-7.008 -10.795,-16.488 -10.795,-26.936 0,-0.628 0.018,-1.251 0.047,-1.872 l 0,0 c 0.003,-0.054 0.009,-0.108 0.011,-0.162 L 0,0 l 0,0 0,0 0,13.284 0,0 86.422,126.701 c 0.322,0.567 0.659,1.123 1.013,1.668 z" /><path
     style="fill:#4f94c1"
     inkscape:connector-curvature="0"
     id="path26"
     d="m 81.369,118.334 c 0.488,-9.495 4.366,-18.089 10.447,-24.605 0.521,-0.559 1.064,-1.097 1.616,-1.624 1.653,-1.714 3.49,-3.249 5.487,-4.564 l -0.003,-0.004 0.169,-0.103 c 0.545,-0.354 1.101,-0.692 1.668,-1.013 L 227.454,0 0,0 0,0 81.369,118.334 Z" /><path
     style="fill:#4b88b1"
     inkscape:connector-curvature="0"
     id="path28"
     d="m 99.085,87.435 -0.169,0.103 0.003,0.004 c -1.997,1.315 -3.834,2.85 -5.487,4.564 7.008,-6.683 16.488,-10.796 26.936,-10.796 0.628,0 1.251,0.018 1.872,0.047 0.054,0.003 0.108,0.009 0.162,0.011 L 240.737,0 l 0,0 -13.284,0 -126.7,86.422 c -0.567,0.322 -1.123,0.659 -1.668,1.013 z" /><path
     style="fill:#a3c8e9"
     inkscape:connector-curvature="0"
     id="path30"
     d="m 159.369,122.403 c -0.488,9.495 -4.366,18.089 -10.448,24.605 -0.521,0.558 -1.063,1.097 -1.616,1.624 -1.653,1.714 -3.49,3.249 -5.487,4.564 l 0.003,0.004 -0.169,0.103 c -0.545,0.354 -1.101,0.692 -1.668,1.013 l -126.7,86.422 227.454,0 0,0 -81.369,-118.335 z" /><path
     style="fill:#96b7d5"
     inkscape:connector-curvature="0"
     id="path32"
     d="m 141.653,153.302 0.169,-0.103 -0.003,-0.004 c 1.997,-1.315 3.834,-2.85 5.487,-4.564 -7.008,6.683 -16.488,10.796 -26.936,10.796 -0.628,0 -1.251,-0.018 -1.872,-0.047 l 0,0 c -0.054,-0.003 -0.108,-0.009 -0.162,-0.011 L 0,240.738 l 0,0 13.284,0 126.701,-86.422 c 0.567,-0.322 1.123,-0.66 1.668,-1.014 z" /><path
     style="fill:#efefef;fill-opacity:1"
     inkscape:connector-curvature="0"
     id="path34"
     d="m 147.008,91.817 c -6.516,-6.082 -15.11,-9.96 -24.605,-10.448 -0.054,-0.003 -0.108,-0.009 -0.162,-0.011 -0.621,-0.029 -1.244,-0.047 -1.872,-0.047 -10.448,0 -19.928,4.113 -26.936,10.796 -0.553,0.527 -1.095,1.065 -1.616,1.624 -6.082,6.516 -9.96,15.11 -10.447,24.605 0,0 0,0 0,0 -0.003,0.054 -0.009,0.108 -0.011,0.162 l 0,0 c -0.029,0.621 -0.047,1.244 -0.047,1.872 0,10.448 4.113,19.928 10.795,26.936 0.527,0.553 1.066,1.095 1.624,1.617 6.516,6.082 15.11,9.96 24.605,10.448 0,0 0,0 0,0 0.054,0.003 0.108,0.009 0.162,0.011 l 0,0 c 0.621,0.029 1.244,0.047 1.872,0.047 10.448,0 19.928,-4.113 26.936,-10.796 0.553,-0.527 1.095,-1.065 1.616,-1.624 6.082,-6.516 9.96,-15.11 10.448,-24.605 0.003,-0.054 0.009,-0.108 0.011,-0.163 0.029,-0.621 0.047,-1.244 0.047,-1.872 0,-10.448 -4.113,-19.927 -10.795,-26.935 -0.528,-0.554 -1.066,-1.096 -1.625,-1.617 z" /><g
     style="font-style:normal;font-weight:normal;font-size:40px;line-height:125%;font-family:sans-serif;letter-spacing:0px;word-spacing:0px;fill:#6d6e71;fill-opacity:1;stroke:none;stroke-width:1px;stroke-linecap:butt;stroke-linejoin:miter;stroke-opacity:1"
     id="text4203"><path
       d="m 367.17276,120.84662 44.38477,0 0,63.01758 q -10.19532,3.25195 -20.74219,4.92187 -10.54688,1.66992 -24.4336,1.66992 -29.35546,0 -45.43945,-17.40234 -16.08398,-17.40234 -16.08398,-48.60352 0,-20.12695 7.99804,-35.156246 7.99805,-15.029297 23.02735,-22.939453 15.11719,-7.998047 35.5957,-7.998047 20.56641,0 38.32031,7.558594 l -6.15234,14.0625 q -16.96289,-7.382812 -33.13477,-7.382812 -22.93945,0 -35.85937,13.886718 -12.91992,13.886716 -12.91992,37.968746 0,25.48829 12.39258,38.75977 12.39257,13.27148 36.03515,13.27148 12.91992,0 25.22461,-3.07617 l 0,-38.14453 -28.21289,0 0,-14.41406 z"
       style="font-style:normal;font-variant:normal;font-weight:normal;font-stretch:normal;font-size:180px;font-family:'Open Sans';-inkscape-font-specification:'Open Sans';fill:#6d6e71;fill-opacity:1"
       id="path4149"
       inkscape:connector-curvature="0" /><path
       d="m 499.8876,188.69818 -3.07617,-13.71094 -0.70312,0 q -7.20703,9.05274 -14.41407,12.30469 -7.11914,3.16406 -18.01757,3.16406 -14.23828,0 -22.32422,-7.4707 -8.08594,-7.4707 -8.08594,-21.09375 0,-29.35547 46.31836,-30.76172 l 16.34766,-0.61523 0,-5.71289 q 0,-10.98633 -4.7461,-16.17188 -4.74609,-5.27344 -15.20508,-5.27344 -7.64648,0 -14.50195,2.28516 -6.76758,2.28516 -12.74414,5.09766 l -4.83398,-11.865238 q 7.29492,-3.867187 15.9082,-6.064453 8.61328,-2.197265 17.05078,-2.197265 17.49023,0 26.01563,7.734375 8.52539,7.734371 8.52539,24.609371 l 0,65.74219 -11.51368,0 z m -32.60742,-10.98633 q 13.27149,0 20.83008,-7.11914 7.64648,-7.20703 7.64648,-20.39062 l 0,-8.70117 -14.23828,0.61523 q -16.61132,0.61523 -24.25781,5.27344 -7.55859,4.6582 -7.55859,14.67773 0,7.5586 4.57031,11.60156 4.6582,4.04297 13.00781,4.04297 z"
       style="font-style:normal;font-variant:normal;font-weight:normal;font-stretch:normal;font-size:180px;font-family:'Open Sans';-inkscape-font-specification:'Open Sans';fill:#6d6e71;fill-opacity:1"
       id="path4151"
       inkscape:connector-curvature="0" /><path
       d="m 557.01651,188.69818 -15.82031,0 0,-136.757811 15.82031,0 0,136.757811 z"
       style="font-style:normal;font-variant:normal;font-weight:normal;font-stretch:normal;font-size:180px;font-family:'Open Sans';-inkscape-font-specification:'Open Sans';fill:#6d6e71;fill-opacity:1"
       id="path4153"
       inkscape:connector-curvature="0" /><path
       d="m 603.42276,188.69818 -15.82031,0 0,-136.757811 15.82031,0 0,136.757811 z"
       style="font-style:normal;font-variant:normal;font-weight:normal;font-stretch:normal;font-size:180px;font-family:'Open Sans';-inkscape-font-specification:'Open Sans';fill:#6d6e71;fill-opacity:1"
       id="path4155"
       inkscape:connector-curvature="0" /><path
       d="m 649.82901,188.69818 -15.82031,0 0,-96.503905 15.82031,0 0,96.503905 z M 632.77823,66.090759 q 0,-5.273437 2.63672,-7.646484 2.72461,-2.373047 6.67969,-2.373047 3.6914,0 6.41601,2.373047 2.8125,2.373047 2.8125,7.646484 0,5.185547 -2.8125,7.646485 -2.72461,2.460937 -6.41601,2.460937 -3.95508,0 -6.67969,-2.460937 -2.63672,-2.460938 -2.63672,-7.646485 z"
       style="font-style:normal;font-variant:normal;font-weight:normal;font-stretch:normal;font-size:180px;font-family:'Open Sans';-inkscape-font-specification:'Open Sans';fill:#6d6e71;fill-opacity:1"
       id="path4157"
       inkscape:connector-curvature="0" /><path
       d="m 695.35635,92.194275 0,62.138675 q 0,11.68945 5.18555,17.40234 5.27344,5.625 16.25977,5.625 14.85351,0 21.62109,-8.26172 6.76758,-8.26172 6.76758,-26.63086 l 0,-50.273435 15.9082,0 0,96.503905 -13.00781,0 -2.28516,-12.74414 -0.79101,0 q -4.30664,6.94336 -12.2168,10.72266 -7.91016,3.77929 -18.36914,3.77929 -17.40234,0 -26.2793,-8.34961 -8.78906,-8.34961 -8.78906,-26.71875 l 0,-63.193355 15.99609,0 z"
       style="font-style:normal;font-variant:normal;font-weight:normal;font-stretch:normal;font-size:180px;font-family:'Open Sans';-inkscape-font-specification:'Open Sans';fill:#6d6e71;fill-opacity:1"
       id="path4159"
       inkscape:connector-curvature="0" /><path
       d="m 914.64346,188.69818 0,-62.13867 q 0,-22.85156 -19.59961,-22.85156 -13.44726,0 -19.77539,7.82226 -6.32812,7.82227 -6.32812,23.90625 l 0,53.26172 -15.73242,0 0,-62.13867 q 0,-11.42578 -4.83399,-17.13867 -4.74609,-5.71289 -14.9414,-5.71289 -13.35938,0 -19.59961,8.17382 -6.15235,8.17383 -6.15235,26.80665 l 0,50.00976 -15.82031,0 0,-96.503905 12.74414,0 2.37305,13.183595 0.8789,0 q 4.13086,-7.031251 11.60157,-10.986329 7.55859,-3.955079 16.875,-3.955079 22.67578,0 29.53125,16.171878 l 0.8789,0 q 4.65821,-7.734378 12.65625,-11.953128 8.08594,-4.21875 18.28125,-4.21875 16.34766,0 24.4336,8.4375 8.17382,8.437498 8.17382,26.982418 l 0,62.8418 -15.64453,0 z"
       style="font-style:normal;font-variant:normal;font-weight:normal;font-stretch:normal;font-size:180px;font-family:'Open Sans';-inkscape-font-specification:'Open Sans';fill:#6d6e71;fill-opacity:1"
       id="path4161"
       inkscape:connector-curvature="0" /><path
       d="m 1074.6044,124.27435 q 0,30.84961 -15.6445,48.51563 -15.5567,17.66601 -43.5938,17.66601 -28.38865,0 -43.94529,-17.31445 -15.46875,-17.40234 -15.46875,-49.04297 0,-31.376951 15.38086,-48.603514 15.46875,-17.314453 44.20898,-17.314453 27.9492,0 43.5059,17.578125 15.5566,17.490234 15.5566,48.515622 z m -101.60156,0 q 0,25.48828 10.81055,38.84766 10.81054,13.35937 31.55271,13.35937 20.6543,0 31.377,-13.18359 10.7226,-13.18359 10.7226,-39.02344 0,-25.75195 -10.6347,-38.759763 -10.6348,-13.095703 -31.2891,-13.095703 -20.91797,0 -31.72851,13.271485 -10.81055,13.183593 -10.81055,38.583981 z"
       style="font-style:normal;font-variant:normal;font-weight:normal;font-stretch:normal;font-size:180px;font-family:'Open Sans';-inkscape-font-specification:'Open Sans';fill:#6d6e71;fill-opacity:1"
       id="path4163"
       inkscape:connector-curvature="0" /><path
       d="m 1175.9423,154.33295 q 0,16.78711 -12.1289,26.45507 -12.1289,9.66797 -33.75,9.66797 -22.8516,0 -35.332,-6.06445 l 0,-15.46875 q 8.1738,3.51563 17.8418,5.53711 9.7558,2.02148 18.1933,2.02148 14.4141,0 21.709,-5.53711 7.2949,-5.5371 7.2949,-15.20507 0,-6.41602 -2.6367,-10.54688 -2.6367,-4.13086 -8.877,-7.73437 -6.1523,-3.60352 -18.7207,-8.17383 -17.8418,-6.50391 -25.4882,-15.29297 -7.6465,-8.87695 -7.6465,-22.851563 0,-15.029296 11.25,-23.90625 11.3379,-8.876953 29.7949,-8.876953 19.248,0 35.4199,7.207032 l -5.0097,13.886718 q -16.5235,-6.855468 -30.7618,-6.855468 -11.4257,0 -17.9297,4.921875 -6.416,4.921875 -6.416,13.798828 0,6.328125 2.461,10.546871 2.5488,4.13086 8.0859,7.5586 5.625,3.42773 17.5781,7.82226 14.3262,5.27344 21.3575,10.28321 7.0312,4.92187 10.371,11.42578 3.3399,6.41601 3.3399,15.38086 z"
       style="font-style:normal;font-variant:normal;font-weight:normal;font-stretch:normal;font-size:180px;font-family:'Open Sans';-inkscape-font-specification:'Open Sans';fill:#6d6e71;fill-opacity:1"
       id="path4165"
       inkscape:connector-curvature="0" /></g></svg>