<?xml version="1.0" encoding="UTF-8" standalone="no"?>
<svg
   xmlns:dc="http://purl.org/dc/elements/1.1/"
   xmlns:cc="http://creativecommons.org/ns#"
   xmlns:rdf="http://www.w3.org/1999/02/22-rdf-syntax-ns#"
   xmlns:svg="http://www.w3.org/2000/svg"
   xmlns="http://www.w3.org/2000/svg"
   version="1.1"
   id="svg4633"
   viewBox="0 0 600.00002 142.41952"
   height="40.193954mm"
   width="169.33334mm">
  <defs
     id="defs4635" />
  <metadata
     id="metadata4638">
    <rdf:RDF>
      <cc:Work
         rdf:about="">
        <dc:format>image/svg+xml</dc:format>
        <dc:type
           rdf:resource="http://purl.org/dc/dcmitype/StillImage" />
        <dc:title></dc:title>
      </cc:Work>
    </rdf:RDF>
  </metadata>
  <g
     transform="translate(265.3617,-541.9427)"
     id="layer1">
    <g
       id="g4563"
       transform="matrix(0.05838113,0,0,0.05838113,-987.1052,587.33058)">
      <g
         id="g4565"
         transform="translate(11342.898,1370.9743)">
        <path
           style="opacity:1;fill:#304af0;fill-opacity:1"
           id="path4567"
           d="m 2259.7975,-1334.7251 c 94.95,4.88 189.5928,35.5149 246.05,104.48 359.8308,439.54983 658.5546,946.38246 937.3001,1356.38013 l 0,-2274.55023 0,0 z" />
        <path
           style="opacity:1;fill:#1a2242;fill-opacity:1"
           id="path4569"
           d="m 2203.0583,-522.62663 c -94.95,-4.88 -189.5875,-35.50983 -246.0501,-104.48001 -359.8344,-439.54476 -658.5511,-946.38066 -937.29,-1356.37016 l 0,2274.54024 0,0 z" />
        <path
           style="opacity:1;fill:#162370;fill-opacity:1"
           id="path4571"
           d="m 1833.4082,-965.07509 c 4.88,-94.95001 35.5047,-189.59231 104.47,-246.05001 439.5507,-359.833 946.3863,-658.5496 1356.3802,-937.2901 l -2274.5402,0 0,0 z" />
        <path
           style="opacity:1;fill:#4c65ff;fill-opacity:1"
           id="path4573"
           d="m 2629.4575,-892.28666 c -4.88,94.95001 -35.5085,189.58915 -104.48,246.05002 -439.5526,359.82286 -946.3797,658.556482 -1356.3701,937.30008 l 2274.5402,0 0,0 z" />
      </g>
      <text
         id="text4575"
         y="968.96771"
         x="15402.283"
         style="font-style:normal;font-variant:normal;font-weight:normal;font-stretch:normal;font-size:320.98403931px;line-height:125%;font-family:Roboto;-inkscape-font-specification:Roboto;letter-spacing:0px;word-spacing:0px;fill:#304af0;fill-opacity:1;stroke:none;stroke-width:1px;stroke-linecap:butt;stroke-linejoin:miter;stroke-opacity:1"
         xml:space="preserve"><tspan
           style="font-style:normal;font-variant:normal;font-weight:500;font-stretch:normal;font-size:1524.67407227px;font-family:Roboto;-inkscape-font-specification:'Roboto Medium';letter-spacing:8.8270607px;fill:#304af0;fill-opacity:1"
           y="968.96771"
           x="15402.283"
           id="tspan4577">GalliumOS</tspan></text>
    </g>
  </g>
</svg>
