<?xml version="1.0" encoding="utf-8"?>
<!-- Generator: Adobe Illustrator 17.0.0, SVG Export Plug-In . SVG Version: 6.00 Build 0)  -->
<!DOCTYPE svg PUBLIC "-//W3C//DTD SVG 1.1//EN" "http://www.w3.org/Graphics/SVG/1.1/DTD/svg11.dtd">
<svg version="1.1" id="Layer_1" xmlns="http://www.w3.org/2000/svg" xmlns:xlink="http://www.w3.org/1999/xlink" x="0px" y="0px"
	 width="918.35px" height="240.738px" viewBox="0 0 918.35 240.738" enable-background="new 0 0 918.35 240.738"
	 xml:space="preserve">
<g id="Layer_1_1_" display="none">
	<rect x="78.831" y="54.609" display="inline" fill="#00A651" width="362.378" height="362.378"/>
	<circle display="inline" fill="#FFFFFF" cx="260.02" cy="235.798" r="60.811"/>
	<circle display="inline" fill="#FFFFFF" cx="260.02" cy="235.798" r="60.811"/>
	<circle display="inline" fill="#FFFFFF" cx="260.02" cy="235.798" r="60.811"/>
</g>
<g id="Layer_2">
	<g>
		<g>
			<path fill="#6CB5DD" d="M122.403,81.369c9.495,0.488,18.09,4.366,24.605,10.448c0.559,0.521,1.097,1.064,1.624,1.617
				c1.714,1.653,3.249,3.489,4.564,5.486l0.004-0.003l0.103,0.169c0.354,0.545,0.692,1.101,1.013,1.668l86.422,126.701V0l0,0
				L122.403,81.369z"/>
			<path fill="#65A6CA" d="M240.738,227.454l-86.422-126.701c-0.321-0.567-0.659-1.123-1.013-1.668l-0.103-0.169l-0.004,0.003
				c-1.315-1.997-2.85-3.833-4.564-5.486c6.682,7.008,10.795,16.488,10.795,26.935c0,0.628-0.018,1.251-0.047,1.872
				c-0.003,0.054-0.009,0.108-0.011,0.163l81.369,118.334l0,0l0,0L240.738,227.454L240.738,227.454z"/>
			<path fill="#2F7AA2" d="M118.334,159.369c-9.495-0.488-18.089-4.366-24.605-10.448c-0.559-0.521-1.097-1.064-1.624-1.617
				c-1.714-1.653-3.249-3.49-4.564-5.486l-0.004,0.003l-0.103-0.169c-0.354-0.545-0.692-1.101-1.013-1.668L0,13.284v227.454l0,0
				L118.334,159.369z"/>
			<path fill="#2E7195" d="M87.435,141.653l0.103,0.169l0.004-0.003c1.315,1.997,2.85,3.833,4.564,5.486
				c-6.683-7.008-10.795-16.488-10.795-26.936c0-0.628,0.018-1.251,0.047-1.872l0,0c0.003-0.054,0.009-0.108,0.011-0.162L0,0l0,0
				l0,0v13.284l0,0l86.422,126.701C86.744,140.552,87.081,141.108,87.435,141.653z"/>
			<path fill="#4F94C1" d="M81.369,118.334c0.488-9.495,4.366-18.089,10.447-24.605c0.521-0.559,1.064-1.097,1.616-1.624
				c1.653-1.714,3.49-3.249,5.487-4.564l-0.003-0.004l0.169-0.103c0.545-0.354,1.101-0.692,1.668-1.013L227.454,0H0l0,0
				L81.369,118.334z"/>
			<path fill="#4B88B1" d="M99.085,87.435l-0.169,0.103l0.003,0.004c-1.997,1.315-3.834,2.85-5.487,4.564
				c7.008-6.683,16.488-10.796,26.936-10.796c0.628,0,1.251,0.018,1.872,0.047c0.054,0.003,0.108,0.009,0.162,0.011L240.737,0l0,0
				h-13.284l-126.7,86.422C100.186,86.744,99.63,87.081,99.085,87.435z"/>
			<path fill="#A3C8E9" d="M159.369,122.403c-0.488,9.495-4.366,18.089-10.448,24.605c-0.521,0.558-1.063,1.097-1.616,1.624
				c-1.653,1.714-3.49,3.249-5.487,4.564l0.003,0.004l-0.169,0.103c-0.545,0.354-1.101,0.692-1.668,1.013l-126.7,86.422h227.454l0,0
				L159.369,122.403z"/>
			<path fill="#96B7D5" d="M141.653,153.302l0.169-0.103l-0.003-0.004c1.997-1.315,3.834-2.85,5.487-4.564
				c-7.008,6.683-16.488,10.796-26.936,10.796c-0.628,0-1.251-0.018-1.872-0.047l0,0c-0.054-0.003-0.108-0.009-0.162-0.011
				L0,240.738l0,0h13.284l126.701-86.422C140.552,153.994,141.108,153.656,141.653,153.302z"/>
		</g>
	</g>
	<g>
		<path fill="#6D6E71" d="M370.602,119.804h42.966v61.466c-6.687,2.133-13.486,3.747-20.402,4.841s-14.928,1.643-24.033,1.643
			c-19.135,0-34.033-5.691-44.695-17.074c-10.663-11.382-15.994-27.332-15.994-47.851c0-13.141,2.637-24.652,7.91-34.537
			c5.274-9.884,12.867-17.433,22.78-22.65c9.912-5.215,21.526-7.824,34.84-7.824c13.486,0,26.05,2.479,37.692,7.435l-5.706,12.968
			c-11.411-4.841-22.391-7.262-32.938-7.262c-15.388,0-27.405,4.582-36.05,13.746s-12.968,21.872-12.968,38.125
			c0,17.061,4.164,29.999,12.492,38.816c8.328,8.818,20.561,13.227,36.698,13.227c8.76,0,17.318-1.007,25.676-3.025v-38.903h-28.269
			L370.602,119.804L370.602,119.804z"/>
		<path fill="#6D6E71" d="M500.017,186.025l-2.853-13.486h-0.691c-4.727,5.937-9.438,9.957-14.135,12.06
			c-4.698,2.103-10.562,3.155-17.593,3.155c-9.395,0-16.758-2.42-22.088-7.262c-5.332-4.841-7.997-11.728-7.997-20.662
			c0-19.134,15.301-29.162,45.905-30.085l16.08-0.519v-5.879c0-7.435-1.6-12.924-4.798-16.469
			c-3.199-3.544-8.314-5.316-15.345-5.316c-7.897,0-16.83,2.42-26.8,7.262l-4.409-10.979c4.668-2.535,9.782-4.523,15.345-5.965
			c5.562-1.44,11.138-2.161,16.729-2.161c11.295,0,19.667,2.507,25.113,7.521c5.447,5.014,8.17,13.054,8.17,24.12v64.665
			L500.017,186.025L500.017,186.025z M467.599,175.91c8.933,0,15.949-2.449,21.05-7.348c5.101-4.898,7.651-11.757,7.651-20.575
			v-8.559l-14.351,0.605c-11.412,0.404-19.64,2.176-24.682,5.317c-5.044,3.142-7.564,8.026-7.564,14.653
			c0,5.187,1.569,9.135,4.711,11.844C457.556,174.557,461.95,175.91,467.599,175.91z"/>
		<path fill="#6D6E71" d="M554.568,186.025h-14.352V51.508h14.352V186.025z"/>
		<path fill="#6D6E71" d="M599.349,186.025h-14.352V51.508h14.352V186.025z"/>
		<path fill="#6D6E71" d="M628.569,65.6c0-3.285,0.807-5.691,2.421-7.219c1.612-1.526,3.631-2.291,6.052-2.291
			c2.304,0,4.292,0.778,5.965,2.334c1.671,1.556,2.507,3.949,2.507,7.176c0,3.228-0.836,5.634-2.507,7.218
			c-1.673,1.586-3.661,2.377-5.965,2.377c-2.421,0-4.439-0.792-6.052-2.377C629.376,71.233,628.569,68.828,628.569,65.6z
			 M644.131,186.025h-14.352v-94.75h14.352V186.025z"/>
		<path fill="#6D6E71" d="M688.047,91.275v61.466c0,7.724,1.758,13.486,5.273,17.29c3.516,3.804,9.02,5.706,16.513,5.706
			c9.912,0,17.16-2.708,21.742-8.126c4.582-5.417,6.873-14.264,6.873-26.54V91.275h14.351v94.75h-11.844l-2.075-12.708h-0.777
			c-2.939,4.668-7.018,8.242-12.233,10.72c-5.217,2.477-11.167,3.717-17.852,3.717c-11.528,0-20.158-2.737-25.893-8.213
			c-5.735-5.475-8.602-14.234-8.602-26.281V91.275H688.047z"/>
		<path fill="#6D6E71" d="M904,186.025v-61.639c0-7.55-1.614-13.212-4.841-16.987c-3.229-3.774-8.242-5.663-15.043-5.663
			c-8.934,0-15.532,2.565-19.797,7.694c-4.266,5.13-6.397,13.026-6.397,23.688v52.908h-14.351v-61.639
			c0-7.55-1.614-13.212-4.841-16.987c-3.229-3.774-8.271-5.663-15.129-5.663c-8.991,0-15.576,2.695-19.754,8.083
			c-4.18,5.39-6.268,14.221-6.268,26.497v49.709h-14.352v-94.75h11.671l2.335,12.967h0.691c2.708-4.61,6.526-8.213,11.454-10.806
			c4.928-2.594,10.446-3.89,16.556-3.89c14.812,0,24.494,5.36,29.047,16.08h0.692c2.823-4.956,6.916-8.875,12.275-11.757
			c5.36-2.881,11.469-4.322,18.328-4.322c10.72,0,18.744,2.753,24.076,8.256c5.33,5.504,7.996,14.308,7.996,26.411v61.812H904
			V186.025z"/>
	</g>
</g>
</svg>
