<?xml version="1.0" encoding="UTF-8" standalone="no"?>
<!-- Generator: Adobe Illustrator 17.0.0, SVG Export Plug-In . SVG Version: 6.00 Build 0)  -->

<svg
   xmlns:dc="http://purl.org/dc/elements/1.1/"
   xmlns:cc="http://creativecommons.org/ns#"
   xmlns:rdf="http://www.w3.org/1999/02/22-rdf-syntax-ns#"
   xmlns:svg="http://www.w3.org/2000/svg"
   xmlns="http://www.w3.org/2000/svg"
   xmlns:sodipodi="http://sodipodi.sourceforge.net/DTD/sodipodi-0.dtd"
   xmlns:inkscape="http://www.inkscape.org/namespaces/inkscape"
   version="1.1"
   x="0px"
   y="0px"
   width="1170.493"
   height="240.73801"
   viewBox="0 0 1170.4931 240.738"
   enable-background="new 0 0 918.35 240.738"
   xml:space="preserve"
   id="svg2"
   inkscape:version="0.91 r13725"
   sodipodi:docname="Logo-01.svg"><metadata
     id="metadata56"><rdf:RDF><cc:Work
         rdf:about=""><dc:format>image/svg+xml</dc:format><dc:type
           rdf:resource="http://purl.org/dc/dcmitype/StillImage" /><dc:title></dc:title></cc:Work></rdf:RDF></metadata><defs
     id="defs54" /><sodipodi:namedview
     pagecolor="#ffffff"
     bordercolor="#666666"
     borderopacity="1"
     objecttolerance="10"
     gridtolerance="10"
     guidetolerance="10"
     inkscape:pageopacity="0"
     inkscape:pageshadow="2"
     inkscape:window-width="1366"
     inkscape:window-height="709"
     id="namedview52"
     showgrid="false"
     fit-margin-top="0"
     fit-margin-left="0"
     fit-margin-right="0"
     fit-margin-bottom="0"
     inkscape:zoom="0.23099258"
     inkscape:cx="76.529167"
     inkscape:cy="138.3009"
     inkscape:window-x="0"
     inkscape:window-y="0"
     inkscape:window-maximized="1"
     inkscape:current-layer="svg2" /><g
     id="Layer_1"
     display="none"
     style="display:none"><rect
       x="78.831001"
       y="54.609001"
       display="inline"
       width="362.37799"
       height="362.37799"
       id="rect5"
       style="display:inline;fill:#00a651" /><circle
       display="inline"
       cx="260.01999"
       cy="235.798"
       r="60.811001"
       id="circle7"
       style="display:inline;fill:#ffffff" /><circle
       display="inline"
       cx="260.01999"
       cy="235.798"
       r="60.811001"
       id="circle9"
       style="display:inline;fill:#ffffff" /><circle
       display="inline"
       cx="260.01999"
       cy="235.798"
       r="60.811001"
       id="circle11"
       style="display:inline;fill:#ffffff" /></g><path
     style="fill:#6cb5dd"
     inkscape:connector-curvature="0"
     id="path18"
     d="m 122.403,81.369 c 9.495,0.488 18.09,4.366 24.605,10.448 0.559,0.521 1.097,1.064 1.624,1.617 1.714,1.653 3.249,3.489 4.564,5.486 l 0.004,-0.003 0.103,0.169 c 0.354,0.545 0.692,1.101 1.013,1.668 l 86.422,126.701 0,-227.455 0,0 -118.335,81.369 z" /><path
     style="fill:#65a6ca"
     inkscape:connector-curvature="0"
     id="path20"
     d="M 240.738,227.454 154.316,100.753 c -0.321,-0.567 -0.659,-1.123 -1.013,-1.668 l -0.103,-0.169 -0.004,0.003 c -1.315,-1.997 -2.85,-3.833 -4.564,-5.486 6.682,7.008 10.795,16.488 10.795,26.935 0,0.628 -0.018,1.251 -0.047,1.872 -0.003,0.054 -0.009,0.108 -0.011,0.163 l 81.369,118.334 0,0 0,0 0,-13.283 0,0 z" /><path
     style="fill:#2f7aa2"
     inkscape:connector-curvature="0"
     id="path22"
     d="m 118.334,159.369 c -9.495,-0.488 -18.089,-4.366 -24.605,-10.448 -0.559,-0.521 -1.097,-1.064 -1.624,-1.617 -1.714,-1.653 -3.249,-3.49 -4.564,-5.486 l -0.004,0.003 -0.103,-0.169 c -0.354,-0.545 -0.692,-1.101 -1.013,-1.668 L 0,13.284 l 0,227.454 0,0 118.334,-81.369 z" /><path
     style="fill:#2e7195"
     inkscape:connector-curvature="0"
     id="path24"
     d="m 87.435,141.653 0.103,0.169 0.004,-0.003 c 1.315,1.997 2.85,3.833 4.564,5.486 -6.683,-7.008 -10.795,-16.488 -10.795,-26.936 0,-0.628 0.018,-1.251 0.047,-1.872 l 0,0 c 0.003,-0.054 0.009,-0.108 0.011,-0.162 L 0,0 l 0,0 0,0 0,13.284 0,0 86.422,126.701 c 0.322,0.567 0.659,1.123 1.013,1.668 z" /><path
     style="fill:#4f94c1"
     inkscape:connector-curvature="0"
     id="path26"
     d="m 81.369,118.334 c 0.488,-9.495 4.366,-18.089 10.447,-24.605 0.521,-0.559 1.064,-1.097 1.616,-1.624 1.653,-1.714 3.49,-3.249 5.487,-4.564 l -0.003,-0.004 0.169,-0.103 c 0.545,-0.354 1.101,-0.692 1.668,-1.013 L 227.454,0 0,0 0,0 81.369,118.334 Z" /><path
     style="fill:#4b88b1"
     inkscape:connector-curvature="0"
     id="path28"
     d="m 99.085,87.435 -0.169,0.103 0.003,0.004 c -1.997,1.315 -3.834,2.85 -5.487,4.564 7.008,-6.683 16.488,-10.796 26.936,-10.796 0.628,0 1.251,0.018 1.872,0.047 0.054,0.003 0.108,0.009 0.162,0.011 L 240.737,0 l 0,0 -13.284,0 -126.7,86.422 c -0.567,0.322 -1.123,0.659 -1.668,1.013 z" /><path
     style="fill:#a3c8e9"
     inkscape:connector-curvature="0"
     id="path30"
     d="m 159.369,122.403 c -0.488,9.495 -4.366,18.089 -10.448,24.605 -0.521,0.558 -1.063,1.097 -1.616,1.624 -1.653,1.714 -3.49,3.249 -5.487,4.564 l 0.003,0.004 -0.169,0.103 c -0.545,0.354 -1.101,0.692 -1.668,1.013 l -126.7,86.422 227.454,0 0,0 -81.369,-118.335 z" /><path
     style="fill:#96b7d5"
     inkscape:connector-curvature="0"
     id="path32"
     d="m 141.653,153.302 0.169,-0.103 -0.003,-0.004 c 1.997,-1.315 3.834,-2.85 5.487,-4.564 -7.008,6.683 -16.488,10.796 -26.936,10.796 -0.628,0 -1.251,-0.018 -1.872,-0.047 l 0,0 c -0.054,-0.003 -0.108,-0.009 -0.162,-0.011 L 0,240.738 l 0,0 13.284,0 126.701,-86.422 c 0.567,-0.322 1.123,-0.66 1.668,-1.014 z" /><path
     style="fill:#efefef;fill-opacity:1"
     inkscape:connector-curvature="0"
     id="path34"
     d="m 147.008,91.817 c -6.516,-6.082 -15.11,-9.96 -24.605,-10.448 -0.054,-0.003 -0.108,-0.009 -0.162,-0.011 -0.621,-0.029 -1.244,-0.047 -1.872,-0.047 -10.448,0 -19.928,4.113 -26.936,10.796 -0.553,0.527 -1.095,1.065 -1.616,1.624 -6.082,6.516 -9.96,15.11 -10.447,24.605 0,0 0,0 0,0 -0.003,0.054 -0.009,0.108 -0.011,0.162 l 0,0 c -0.029,0.621 -0.047,1.244 -0.047,1.872 0,10.448 4.113,19.928 10.795,26.936 0.527,0.553 1.066,1.095 1.624,1.617 6.516,6.082 15.11,9.96 24.605,10.448 0,0 0,0 0,0 0.054,0.003 0.108,0.009 0.162,0.011 l 0,0 c 0.621,0.029 1.244,0.047 1.872,0.047 10.448,0 19.928,-4.113 26.936,-10.796 0.553,-0.527 1.095,-1.065 1.616,-1.624 6.082,-6.516 9.96,-15.11 10.448,-24.605 0.003,-0.054 0.009,-0.108 0.011,-0.163 0.029,-0.621 0.047,-1.244 0.047,-1.872 0,-10.448 -4.113,-19.927 -10.795,-26.935 -0.528,-0.554 -1.066,-1.096 -1.625,-1.617 z" /><text
     xml:space="preserve"
     style="font-style:normal;font-weight:normal;font-size:40px;line-height:125%;font-family:sans-serif;letter-spacing:0px;word-spacing:0px;fill:#6d6e71;fill-opacity:1;stroke:none;stroke-width:1px;stroke-linecap:butt;stroke-linejoin:miter;stroke-opacity:1"
     x="293.87198"
     y="188.69818"
     id="text4203"
     sodipodi:linespacing="125%"><tspan
       sodipodi:role="line"
       id="tspan4205"
       x="293.87198"
       y="188.69818"
       style="font-style:normal;font-variant:normal;font-weight:normal;font-stretch:normal;font-size:180px;font-family:'Open Sans';-inkscape-font-specification:'Open Sans';fill:#6d6e71;fill-opacity:1">GalliumOS</tspan></text>
</svg>