<?xml version="1.0" encoding="UTF-8" standalone="no"?>
<!-- Generator: Adobe Illustrator 16.0.0, SVG Export Plug-In . SVG Version: 6.00 Build 0)  -->

<svg
   xmlns:dc="http://purl.org/dc/elements/1.1/"
   xmlns:cc="http://creativecommons.org/ns#"
   xmlns:rdf="http://www.w3.org/1999/02/22-rdf-syntax-ns#"
   xmlns:svg="http://www.w3.org/2000/svg"
   xmlns="http://www.w3.org/2000/svg"
   xmlns:sodipodi="http://sodipodi.sourceforge.net/DTD/sodipodi-0.dtd"
   xmlns:inkscape="http://www.inkscape.org/namespaces/inkscape"
   version="1.1"
   id="Capa_1"
   x="0px"
   y="0px"
   width="63.849636"
   height="63.876781"
   viewBox="0 0 63.849636 63.876781"
   xml:space="preserve"
   inkscape:version="0.91 r13725"
   sodipodi:docname="xubuntu-icon.svg"><metadata
     id="metadata41"><rdf:RDF><cc:Work
         rdf:about=""><dc:format>image/svg+xml</dc:format><dc:type
           rdf:resource="http://purl.org/dc/dcmitype/StillImage" /><dc:title /></cc:Work></rdf:RDF></metadata><defs
     id="defs39" /><sodipodi:namedview
     pagecolor="#ffffff"
     bordercolor="#666666"
     borderopacity="1"
     objecttolerance="10"
     gridtolerance="10"
     guidetolerance="10"
     inkscape:pageopacity="0"
     inkscape:pageshadow="2"
     inkscape:window-width="1920"
     inkscape:window-height="1021"
     id="namedview37"
     showgrid="false"
     fit-margin-top="0"
     fit-margin-left="0"
     fit-margin-right="0"
     fit-margin-bottom="0"
     inkscape:zoom="3.4660581"
     inkscape:cx="-114.70482"
     inkscape:cy="15.732801"
     inkscape:window-x="0"
     inkscape:window-y="0"
     inkscape:window-maximized="1"
     inkscape:current-layer="g3" /><g
     id="g3"
     transform="matrix(0.93114654,0,0,1.0017226,-55.544477,-277.22952)"
     style="fill:none;fill-opacity:1;stroke:#304af0;stroke-width:5.17710829;stroke-linecap:round;stroke-linejoin:round;stroke-miterlimit:4;stroke-dasharray:none;stroke-opacity:1"><path
       style="fill:#2f7aa2;fill-opacity:1;stroke:none;stroke-width:5.36048985"
       d="m 90.67893,340.48637 c -0.20779,-0.0348 -1.39787,-0.21905 -2.64462,-0.40941 -2.21392,-0.33805 -5.6842,-1.27411 -7.6316,-2.05854 -2.49829,-1.00633 -5.58801,-2.72585 -7.85829,-4.37338 -1.30912,-0.95002 -3.87679,-3.28215 -5.07044,-4.60531 -2.4703,-2.73831 -4.92162,-6.87973 -6.18586,-10.45075 -0.38375,-1.08395 -0.90675,-3.00693 -1.16526,-4.28445 -0.44169,-2.18282 -0.46913,-2.51418 -0.47108,-5.68919 -0.002,-3.09335 0.0326,-3.54513 0.41831,-5.47848 0.58855,-2.94998 1.67087,-6.00953 3.03129,-8.5689 1.00345,-1.8878 1.59163,-2.80265 3.22292,-5.01289 1.2479,-1.69078 5.27431,-5.43557 7.08681,-6.59113 2.45036,-1.56223 3.37312,-2.07577 5.40483,-3.00792 2.81416,-1.29114 6.09183,-2.28429 9.29394,-2.81611 2.12461,-0.35286 2.67252,-0.38885 5.893707,-0.38706 3.1936,0.002 3.77208,0.0397 5.7426,0.37668 1.205193,0.20609 2.905303,0.5693 3.778023,0.80713 1.50102,0.40906 4.887,1.58313 5.21368,1.80782 0.0831,0.0572 0.66115,0.34734 1.28453,0.64482 2.76499,1.3195 5.27702,3.02088 7.76411,5.25858 2.13387,1.91989 3.11243,3.00775 4.73851,5.26776 2.67373,3.71609 4.41633,7.7465 5.29028,12.23579 0.36857,1.89321 0.40737,2.41369 0.40737,5.46391 0,3.03514 -0.0398,3.57451 -0.39877,5.40824 -0.68709,3.50962 -1.55708,5.93652 -3.24622,9.05556 -3.66031,6.75884 -10.0295,12.22462 -17.65326,15.14929 -1.76195,0.67593 -4.94506,1.52047 -7.068593,1.87544 -1.78698,0.29872 -2.71088,0.36666 -5.47445,0.40258 -1.828567,0.0238 -3.494677,0.0147 -3.702467,-0.0201 z m -4.68475,-11.63374 c 2.91814,-0.48084 8.264757,-2.01492 10.846277,-3.11206 0.4382,-0.18624 0.86452,-0.33861 0.94737,-0.33861 0.24838,0 4.400653,-1.86788 7.247593,-3.26028 5.6106,-2.74409 9.0624,-5.45271 9.68419,-7.59918 0.34205,-1.18078 -0.46251,-3.20033 -1.85248,-4.64997 -2.13723,-2.22898 -5.63977,-3.86362 -11.00525,-5.13616 -2.518123,-0.59723 -4.810663,-1.08482 -5.591473,-1.18923 -1.36415,-0.18241 -2.669027,-0.36103 -3.740247,-0.51198 l -1.09562,-0.15439 0,-2.09534 c 0,-4.33748 -0.89235,-7.25809 -2.54826,-8.34032 -0.52216,-0.34127 -0.82274,-0.42613 -1.65186,-0.46641 -0.87578,-0.0426 -1.1264,0.005 -1.84368,0.34693 -0.92376,0.44086 -1.71176,1.29396 -1.95872,2.12053 -0.43334,1.45038 0.0691,5.51033 0.97837,7.90595 0.27935,0.73597 0.13724,0.93344 -0.54097,0.75169 -0.41939,-0.11239 -0.54286,-0.27642 -1.04756,-1.39168 -2.48663,-5.49483 -4.56273,-7.4533 -6.78421,-6.39983 -1.32095,0.62642 -2.13777,1.9862 -2.24113,3.73083 -0.0639,1.07888 -0.0204,1.36108 0.72114,4.67277 0.0738,0.32946 0.20829,0.72783 0.29894,0.88527 0.1729,0.30031 0.0795,0.66404 -0.68262,2.65968 -1.00881,2.64145 -1.80307,5.83615 -2.04042,8.20699 -0.52519,5.24593 0.43299,8.83207 2.97294,11.12669 1.22138,1.10341 3.52255,2.1008 5.28662,2.29137 1.63415,0.17652 4.40533,0.15036 5.64106,-0.0533 z m 22.61059,-23.71402 c 0.39845,-0.39971 1.66729,-2.08971 2.09769,-2.79396 2.70781,-4.43074 4.98756,-9.01848 5.16738,-10.39878 0.0748,-0.57431 0.037,-0.70041 -0.30509,-1.01844 -0.30305,-0.28169 -0.54126,-0.36297 -1.06383,-0.36297 -1.06471,0 -2.19341,0.92613 -3.59519,2.94995 -1.19737,1.72871 -1.66973,2.44294 -1.8017,2.72424 -0.0763,0.16277 -0.41791,0.70683 -0.759,1.20902 -1.01672,1.4969 -2.07298,3.66766 -2.39813,4.92843 -0.36505,1.41552 -0.37951,1.8384 -0.0812,2.37466 0.32878,0.591 0.80641,0.84439 1.59161,0.84439 0.58699,0 0.76158,-0.0695 1.14743,-0.45654 z m -5.39314,-1.58835 c 0.64953,-0.54547 1.02711,-1.44688 1.43826,-3.43358 0.11991,-0.57946 0.31894,-1.46444 0.44227,-1.96664 0.54877,-2.23442 0.88194,-7.59938 0.54248,-8.73546 -0.30198,-1.01068 -1.70575,-1.61754 -2.29546,-0.99235 -0.63327,0.67137 -1.25156,2.33228 -1.54456,4.14914 -0.12193,0.75613 -0.32478,1.89397 -0.45076,2.52853 -0.45512,2.29241 -0.84207,4.91108 -0.84207,5.69878 0,1.22621 0.37629,2.40896 0.91147,2.86496 0.61037,0.52005 1.0793,0.49049 1.79837,-0.11338 z"
       id="path5864"
       inkscape:connector-curvature="0" /></g><g
     id="g7"
     transform="translate(-69.366381,-276.67214)" /><g
     id="g9"
     transform="translate(-69.366381,-276.67214)" /><g
     id="g11"
     transform="translate(-69.366381,-276.67214)" /><g
     id="g13"
     transform="translate(-69.366381,-276.67214)" /><g
     id="g15"
     transform="translate(-69.366381,-276.67214)" /><g
     id="g17"
     transform="translate(-69.366381,-276.67214)" /><g
     id="g19"
     transform="translate(-69.366381,-276.67214)" /><g
     id="g21"
     transform="translate(-69.366381,-276.67214)" /><g
     id="g23"
     transform="translate(-69.366381,-276.67214)" /><g
     id="g25"
     transform="translate(-69.366381,-276.67214)" /><g
     id="g27"
     transform="translate(-69.366381,-276.67214)" /><g
     id="g29"
     transform="translate(-69.366381,-276.67214)" /><g
     id="g31"
     transform="translate(-69.366381,-276.67214)" /><g
     id="g33"
     transform="translate(-69.366381,-276.67214)" /><g
     id="g35"
     transform="translate(-69.366381,-276.67214)" /></svg>